# MagicaVoxel @ Ephtracy

# group
o 

# material
mtllib Ballesta THDV.mtl
usemtl palette

# normals
vn -1 0 0
vn 1 0 0
vn 0 0 1
vn 0 0 -1
vn 0 -1 0
vn 0 1 0

# texcoords
vt 0.369141 0.5
vt 0.841797 0.5
vt 0.970703 0.5
vt 0.982422 0.5
vt 0.986328 0.5

# verts
v -0.8 0.9 0.8
v -0.8 0.9 0.7
v -0.8 0.9 0.5
v -0.8 1 0.8
v -0.8 1 0.7
v -0.8 1 0.5
v -0.7 0.8 0.6
v -0.7 0.8 0.4
v -0.7 0.9 0.6
v -0.7 0.9 0.5
v -0.7 0.9 0.4
v -0.6 0 0.8
v -0.6 0 -0.3
v -0.6 0.1 0.8
v -0.6 0.1 -0.3
v -0.6 0.7 0.5
v -0.6 0.7 0.3
v -0.6 0.8 0.5
v -0.6 0.8 0.4
v -0.6 0.8 0.3
v -0.5 0 -0.3
v -0.5 0 -0.4
v -0.5 0.1 0.8
v -0.5 0.1 0.7
v -0.5 0.1 -0.3
v -0.5 0.1 -0.4
v -0.5 0.6 0.4
v -0.5 0.6 0.2
v -0.5 0.7 0.4
v -0.5 0.7 0.3
v -0.5 0.7 0.2
v -0.5 0.9 0.8
v -0.5 0.9 0.7
v -0.4 0.5 0.3
v -0.4 0.5 0.1
v -0.4 0.6 0.3
v -0.4 0.6 0.2
v -0.4 0.6 0.1
v -0.4 1 0.8
v -0.4 1 0.6
v -0.4 1.1 0.8
v -0.4 1.1 0.6
v -0.3 0.4 0.2
v -0.3 0.4 0
v -0.3 0.5 0.2
v -0.3 0.5 0.1
v -0.3 0.5 0
v -0.2 0.2 -0.1
v -0.2 0.2 -0.3
v -0.2 0.3 0.1
v -0.2 0.3 -0.1
v -0.2 0.3 -0.3
v -0.2 0.4 0.1
v -0.2 0.4 0
v -0.2 0.4 -0.1
v -0.2 0.9 0.8
v -0.2 0.9 0.6
v -0.2 1 0.8
v -0.2 1 0.6
v -0.2 1.1 0.8
v -0.2 1.1 0.6
v -0.2 1.2 0.8
v -0.2 1.2 0.6
v -0.1 0.1 -0.1
v -0.1 0.1 -0.4
v -0.1 0.2 0
v -0.1 0.2 -0.1
v -0.1 0.2 -0.3
v -0.1 0.2 -0.4
v -0.1 0.3 0
v -0.1 0.3 -0.1
v -0.1 0.3 -0.3
v -0.1 0.3 -0.4
v -0.1 0.4 -0.1
v -0.1 0.4 -0.3
v 0.1 0.3 0.1
v 0.1 0.3 0
v 0.1 0.3 -0.1
v 0.1 0.4 0.1
v 0.1 0.4 -0.1
v 0.2 0.4 0.2
v 0.2 0.4 0.1
v 0.2 0.4 0
v 0.2 0.5 0.2
v 0.2 0.5 0
v 0.2 1 0.8
v 0.2 1 0.6
v 0.2 1.1 0.8
v 0.2 1.1 0.6
v 0.3 0 0.8
v 0.3 0 -0.1
v 0.3 0.1 0.8
v 0.3 0.1 -0.1
v 0.3 0.5 0.3
v 0.3 0.5 0.2
v 0.3 0.5 0.1
v 0.3 0.6 0.3
v 0.3 0.6 0.1
v 0.4 0.1 0.8
v 0.4 0.1 0.7
v 0.4 0.1 -0.2
v 0.4 0.1 -0.3
v 0.4 0.4 -0.2
v 0.4 0.4 -0.3
v 0.4 0.5 -0.2
v 0.4 0.5 -0.3
v 0.4 0.6 0.4
v 0.4 0.6 0.3
v 0.4 0.6 0.2
v 0.4 0.7 0.4
v 0.4 0.7 0.2
v 0.4 0.9 0.7
v 0.4 0.9 0.6
v 0.4 1 0.8
v 0.4 1 0.6
v 0.5 0.7 0.5
v 0.5 0.7 0.4
v 0.5 0.7 0.3
v 0.5 0.8 0.5
v 0.5 0.8 0.3
v 0.6 0.8 0.6
v 0.6 0.8 0.5
v 0.6 0.8 0.4
v 0.6 0.9 0.6
v 0.6 0.9 0.4
v 0.7 0.9 0.6
v 0.7 0.9 0.5
v 0.7 1 0.6
v 0.7 1 0.5
v -0.7 0.9 0.6
v -0.7 0.9 0.5
v -0.7 1 0.6
v -0.7 1 0.5
v -0.6 0.8 0.6
v -0.6 0.8 0.5
v -0.6 0.8 0.4
v -0.6 0.9 0.6
v -0.6 0.9 0.4
v -0.5 0.7 0.5
v -0.5 0.7 0.4
v -0.5 0.7 0.3
v -0.5 0.8 0.5
v -0.5 0.8 0.3
v -0.4 0.1 0.8
v -0.4 0.1 0.7
v -0.4 0.6 0.4
v -0.4 0.6 0.3
v -0.4 0.6 0.2
v -0.4 0.7 0.4
v -0.4 0.7 0.2
v -0.4 0.9 0.7
v -0.4 0.9 0.6
v -0.4 1 0.8
v -0.4 1 0.6
v -0.3 0 0.8
v -0.3 0 -0.1
v -0.3 0.1 0.8
v -0.3 0.1 -0.1
v -0.3 0.5 0.3
v -0.3 0.5 0.2
v -0.3 0.5 0.1
v -0.3 0.6 0.3
v -0.3 0.6 0.1
v -0.2 0.4 0.2
v -0.2 0.4 0.1
v -0.2 0.4 0
v -0.2 0.5 0.2
v -0.2 0.5 0
v -0.2 1 0.8
v -0.2 1 0.6
v -0.2 1.1 0.8
v -0.2 1.1 0.6
v -0.1 0.3 0.1
v -0.1 0.3 0
v -0.1 0.3 -0.1
v -0.1 0.4 0.1
v -0.1 0.4 -0.1
v 0.1 0.1 -0.1
v 0.1 0.1 -0.4
v 0.1 0.2 0
v 0.1 0.2 -0.1
v 0.1 0.2 -0.3
v 0.1 0.2 -0.4
v 0.1 0.3 0
v 0.1 0.3 -0.1
v 0.1 0.3 -0.3
v 0.1 0.3 -0.4
v 0.1 0.4 -0.1
v 0.1 0.4 -0.3
v 0.2 0.2 -0.1
v 0.2 0.2 -0.3
v 0.2 0.3 0.1
v 0.2 0.3 -0.1
v 0.2 0.3 -0.3
v 0.2 0.4 0.1
v 0.2 0.4 0
v 0.2 0.4 -0.1
v 0.2 0.9 0.8
v 0.2 0.9 0.6
v 0.2 1 0.8
v 0.2 1 0.6
v 0.2 1.1 0.8
v 0.2 1.1 0.6
v 0.2 1.2 0.8
v 0.2 1.2 0.6
v 0.3 0.4 0.2
v 0.3 0.4 0
v 0.3 0.5 0.2
v 0.3 0.5 0.1
v 0.3 0.5 0
v 0.4 0.5 0.3
v 0.4 0.5 0.1
v 0.4 0.6 0.3
v 0.4 0.6 0.2
v 0.4 0.6 0.1
v 0.4 1 0.8
v 0.4 1 0.6
v 0.4 1.1 0.8
v 0.4 1.1 0.6
v 0.5 0 -0.3
v 0.5 0 -0.4
v 0.5 0.1 0.8
v 0.5 0.1 0.7
v 0.5 0.1 -0.2
v 0.5 0.1 -0.3
v 0.5 0.1 -0.4
v 0.5 0.4 -0.2
v 0.5 0.4 -0.3
v 0.5 0.5 -0.2
v 0.5 0.5 -0.3
v 0.5 0.6 0.4
v 0.5 0.6 0.2
v 0.5 0.7 0.4
v 0.5 0.7 0.3
v 0.5 0.7 0.2
v 0.5 0.9 0.8
v 0.5 0.9 0.7
v 0.6 0 0.8
v 0.6 0 -0.3
v 0.6 0.1 0.8
v 0.6 0.1 -0.3
v 0.6 0.7 0.5
v 0.6 0.7 0.3
v 0.6 0.8 0.5
v 0.6 0.8 0.4
v 0.6 0.8 0.3
v 0.7 0.8 0.6
v 0.7 0.8 0.4
v 0.7 0.9 0.6
v 0.7 0.9 0.5
v 0.7 0.9 0.4
v 0.8 0.9 0.8
v 0.8 0.9 0.7
v 0.8 0.9 0.5
v 0.8 1 0.8
v 0.8 1 0.7
v 0.8 1 0.5
v -0.8 0.9 0.8
v -0.8 1 0.8
v -0.6 0 0.8
v -0.6 0.1 0.8
v -0.5 0.1 0.8
v -0.5 0.9 0.8
v -0.4 0.1 0.8
v -0.4 1 0.8
v -0.4 1.1 0.8
v -0.3 0 0.8
v -0.3 0.1 0.8
v -0.2 0.9 0.8
v -0.2 1 0.8
v -0.2 1.1 0.8
v -0.2 1.2 0.8
v 0.2 0.9 0.8
v 0.2 1 0.8
v 0.2 1.1 0.8
v 0.2 1.2 0.8
v 0.3 0 0.8
v 0.3 0.1 0.8
v 0.4 0.1 0.8
v 0.4 1 0.8
v 0.4 1.1 0.8
v 0.5 0.1 0.8
v 0.5 0.9 0.8
v 0.6 0 0.8
v 0.6 0.1 0.8
v 0.8 0.9 0.8
v 0.8 1 0.8
v -0.7 0.8 0.6
v -0.7 0.9 0.6
v -0.6 0.8 0.6
v -0.6 0.9 0.6
v 0.6 0.8 0.6
v 0.6 0.9 0.6
v 0.7 0.8 0.6
v 0.7 0.9 0.6
v -0.6 0.7 0.5
v -0.6 0.8 0.5
v -0.5 0.7 0.5
v -0.5 0.8 0.5
v 0.5 0.7 0.5
v 0.5 0.8 0.5
v 0.6 0.7 0.5
v 0.6 0.8 0.5
v -0.5 0.6 0.4
v -0.5 0.7 0.4
v -0.4 0.6 0.4
v -0.4 0.7 0.4
v 0.4 0.6 0.4
v 0.4 0.7 0.4
v 0.5 0.6 0.4
v 0.5 0.7 0.4
v -0.4 0.5 0.3
v -0.4 0.6 0.3
v -0.3 0.5 0.3
v -0.3 0.6 0.3
v 0.3 0.5 0.3
v 0.3 0.6 0.3
v 0.4 0.5 0.3
v 0.4 0.6 0.3
v -0.3 0.4 0.2
v -0.3 0.5 0.2
v -0.2 0.4 0.2
v -0.2 0.5 0.2
v 0.2 0.4 0.2
v 0.2 0.5 0.2
v 0.3 0.4 0.2
v 0.3 0.5 0.2
v -0.2 0.3 0.1
v -0.2 0.4 0.1
v -0.1 0.3 0.1
v -0.1 0.4 0.1
v 0.1 0.3 0.1
v 0.1 0.4 0.1
v 0.2 0.3 0.1
v 0.2 0.4 0.1
v -0.1 0.2 0
v -0.1 0.3 0
v 0.1 0.2 0
v 0.1 0.3 0
v -0.3 0 -0.1
v -0.3 0.1 -0.1
v -0.2 0.2 -0.1
v -0.2 0.3 -0.1
v -0.1 0.1 -0.1
v -0.1 0.2 -0.1
v -0.1 0.3 -0.1
v -0.1 0.4 -0.1
v 0.1 0.1 -0.1
v 0.1 0.2 -0.1
v 0.1 0.3 -0.1
v 0.1 0.4 -0.1
v 0.2 0.2 -0.1
v 0.2 0.3 -0.1
v 0.3 0 -0.1
v 0.3 0.1 -0.1
v 0.4 0.1 -0.2
v 0.4 0.4 -0.2
v 0.4 0.5 -0.2
v 0.5 0.1 -0.2
v 0.5 0.4 -0.2
v 0.5 0.5 -0.2
v -0.5 0.1 0.7
v -0.5 0.9 0.7
v -0.4 0.1 0.7
v -0.4 0.9 0.7
v 0.4 0.1 0.7
v 0.4 0.9 0.7
v 0.5 0.1 0.7
v 0.5 0.9 0.7
v -0.7 0.9 0.6
v -0.7 1 0.6
v -0.6 0.9 0.6
v -0.4 0.9 0.6
v -0.4 1 0.6
v -0.4 1.1 0.6
v -0.2 0.9 0.6
v -0.2 1 0.6
v -0.2 1.1 0.6
v -0.2 1.2 0.6
v 0.2 0.9 0.6
v 0.2 1 0.6
v 0.2 1.1 0.6
v 0.2 1.2 0.6
v 0.4 0.9 0.6
v 0.4 1 0.6
v 0.4 1.1 0.6
v 0.6 0.9 0.6
v 0.7 0.9 0.6
v 0.7 1 0.6
v -0.8 0.9 0.5
v -0.8 1 0.5
v -0.7 0.9 0.5
v -0.7 1 0.5
v 0.7 0.9 0.5
v 0.7 1 0.5
v 0.8 0.9 0.5
v 0.8 1 0.5
v -0.7 0.8 0.4
v -0.7 0.9 0.4
v -0.6 0.8 0.4
v -0.6 0.9 0.4
v 0.6 0.8 0.4
v 0.6 0.9 0.4
v 0.7 0.8 0.4
v 0.7 0.9 0.4
v -0.6 0.7 0.3
v -0.6 0.8 0.3
v -0.5 0.7 0.3
v -0.5 0.8 0.3
v 0.5 0.7 0.3
v 0.5 0.8 0.3
v 0.6 0.7 0.3
v 0.6 0.8 0.3
v -0.5 0.6 0.2
v -0.5 0.7 0.2
v -0.4 0.6 0.2
v -0.4 0.7 0.2
v 0.4 0.6 0.2
v 0.4 0.7 0.2
v 0.5 0.6 0.2
v 0.5 0.7 0.2
v -0.4 0.5 0.1
v -0.4 0.6 0.1
v -0.3 0.5 0.1
v -0.3 0.6 0.1
v 0.3 0.5 0.1
v 0.3 0.6 0.1
v 0.4 0.5 0.1
v 0.4 0.6 0.1
v -0.3 0.4 0
v -0.3 0.5 0
v -0.2 0.4 0
v -0.2 0.5 0
v 0.2 0.4 0
v 0.2 0.5 0
v 0.3 0.4 0
v 0.3 0.5 0
v -0.2 0.3 -0.1
v -0.2 0.4 -0.1
v -0.1 0.3 -0.1
v -0.1 0.4 -0.1
v 0.1 0.3 -0.1
v 0.1 0.4 -0.1
v 0.2 0.3 -0.1
v 0.2 0.4 -0.1
v -0.6 0 -0.3
v -0.6 0.1 -0.3
v -0.5 0 -0.3
v -0.5 0.1 -0.3
v -0.2 0.2 -0.3
v -0.2 0.3 -0.3
v -0.1 0.2 -0.3
v -0.1 0.3 -0.3
v -0.1 0.4 -0.3
v 0.1 0.2 -0.3
v 0.1 0.3 -0.3
v 0.1 0.4 -0.3
v 0.2 0.2 -0.3
v 0.2 0.3 -0.3
v 0.4 0.1 -0.3
v 0.4 0.4 -0.3
v 0.4 0.5 -0.3
v 0.5 0 -0.3
v 0.5 0.1 -0.3
v 0.5 0.4 -0.3
v 0.5 0.5 -0.3
v 0.6 0 -0.3
v 0.6 0.1 -0.3
v -0.5 0 -0.4
v -0.5 0.1 -0.4
v -0.1 0.1 -0.4
v -0.1 0.2 -0.4
v -0.1 0.3 -0.4
v 0.1 0.1 -0.4
v 0.1 0.2 -0.4
v 0.1 0.3 -0.4
v 0.5 0 -0.4
v 0.5 0.1 -0.4
v -0.6 0 0.8
v -0.3 0 0.8
v 0.3 0 0.8
v 0.6 0 0.8
v -0.3 0 -0.1
v 0.3 0 -0.1
v -0.6 0 -0.3
v -0.5 0 -0.3
v 0.5 0 -0.3
v 0.6 0 -0.3
v -0.5 0 -0.4
v 0.5 0 -0.4
v -0.1 0.2 0
v 0.1 0.2 0
v -0.2 0.2 -0.1
v -0.1 0.2 -0.1
v 0.1 0.2 -0.1
v 0.2 0.2 -0.1
v -0.2 0.2 -0.3
v -0.1 0.2 -0.3
v 0.1 0.2 -0.3
v 0.2 0.2 -0.3
v -0.2 0.3 0.1
v -0.1 0.3 0.1
v 0.1 0.3 0.1
v 0.2 0.3 0.1
v -0.1 0.3 0
v 0.1 0.3 0
v -0.2 0.3 -0.1
v -0.1 0.3 -0.1
v 0.1 0.3 -0.1
v 0.2 0.3 -0.1
v -0.3 0.4 0.2
v -0.2 0.4 0.2
v 0.2 0.4 0.2
v 0.3 0.4 0.2
v -0.2 0.4 0.1
v 0.2 0.4 0.1
v -0.3 0.4 0
v -0.2 0.4 0
v 0.2 0.4 0
v 0.3 0.4 0
v -0.4 0.5 0.3
v -0.3 0.5 0.3
v 0.3 0.5 0.3
v 0.4 0.5 0.3
v -0.3 0.5 0.2
v 0.3 0.5 0.2
v -0.4 0.5 0.1
v -0.3 0.5 0.1
v 0.3 0.5 0.1
v 0.4 0.5 0.1
v -0.5 0.6 0.4
v -0.4 0.6 0.4
v 0.4 0.6 0.4
v 0.5 0.6 0.4
v -0.4 0.6 0.3
v 0.4 0.6 0.3
v -0.5 0.6 0.2
v -0.4 0.6 0.2
v 0.4 0.6 0.2
v 0.5 0.6 0.2
v -0.6 0.7 0.5
v -0.5 0.7 0.5
v 0.5 0.7 0.5
v 0.6 0.7 0.5
v -0.5 0.7 0.4
v 0.5 0.7 0.4
v -0.6 0.7 0.3
v -0.5 0.7 0.3
v 0.5 0.7 0.3
v 0.6 0.7 0.3
v -0.7 0.8 0.6
v -0.6 0.8 0.6
v 0.6 0.8 0.6
v 0.7 0.8 0.6
v -0.6 0.8 0.5
v 0.6 0.8 0.5
v -0.7 0.8 0.4
v -0.6 0.8 0.4
v 0.6 0.8 0.4
v 0.7 0.8 0.4
v -0.8 0.9 0.8
v -0.5 0.9 0.8
v -0.2 0.9 0.8
v 0.2 0.9 0.8
v 0.5 0.9 0.8
v 0.8 0.9 0.8
v -0.8 0.9 0.7
v -0.7 0.9 0.7
v -0.5 0.9 0.7
v -0.4 0.9 0.7
v 0.4 0.9 0.7
v 0.5 0.9 0.7
v 0.7 0.9 0.7
v 0.8 0.9 0.7
v -0.7 0.9 0.6
v -0.6 0.9 0.6
v -0.4 0.9 0.6
v -0.2 0.9 0.6
v 0.2 0.9 0.6
v 0.4 0.9 0.6
v 0.6 0.9 0.6
v 0.7 0.9 0.6
v -0.8 0.9 0.5
v -0.7 0.9 0.5
v 0.7 0.9 0.5
v 0.8 0.9 0.5
v -0.4 1 0.8
v -0.2 1 0.8
v 0.2 1 0.8
v 0.4 1 0.8
v -0.4 1 0.6
v -0.2 1 0.6
v 0.2 1 0.6
v 0.4 1 0.6
v -0.2 1.1 0.8
v 0.2 1.1 0.8
v -0.2 1.1 0.6
v 0.2 1.1 0.6
v -0.6 0.1 0.8
v -0.5 0.1 0.8
v -0.4 0.1 0.8
v -0.3 0.1 0.8
v 0.3 0.1 0.8
v 0.4 0.1 0.8
v 0.5 0.1 0.8
v 0.6 0.1 0.8
v -0.5 0.1 0.7
v -0.4 0.1 0.7
v 0.4 0.1 0.7
v 0.5 0.1 0.7
v -0.3 0.1 -0.1
v -0.1 0.1 -0.1
v 0.1 0.1 -0.1
v 0.3 0.1 -0.1
v 0.4 0.1 -0.2
v 0.5 0.1 -0.2
v -0.6 0.1 -0.3
v -0.5 0.1 -0.3
v 0.4 0.1 -0.3
v 0.5 0.1 -0.3
v 0.6 0.1 -0.3
v -0.5 0.1 -0.4
v -0.1 0.1 -0.4
v 0.1 0.1 -0.4
v 0.5 0.1 -0.4
v -0.1 0.3 0
v 0.1 0.3 0
v -0.2 0.3 -0.1
v -0.1 0.3 -0.1
v 0.1 0.3 -0.1
v 0.2 0.3 -0.1
v -0.2 0.3 -0.3
v -0.1 0.3 -0.3
v 0.1 0.3 -0.3
v 0.2 0.3 -0.3
v -0.1 0.3 -0.4
v 0.1 0.3 -0.4
v -0.2 0.4 0.1
v -0.1 0.4 0.1
v 0.1 0.4 0.1
v 0.2 0.4 0.1
v -0.2 0.4 0
v 0.2 0.4 0
v -0.2 0.4 -0.1
v -0.1 0.4 -0.1
v 0.1 0.4 -0.1
v 0.2 0.4 -0.1
v -0.1 0.4 -0.3
v 0.1 0.4 -0.3
v -0.3 0.5 0.2
v -0.2 0.5 0.2
v 0.2 0.5 0.2
v 0.3 0.5 0.2
v -0.3 0.5 0.1
v 0.3 0.5 0.1
v -0.3 0.5 0
v -0.2 0.5 0
v 0.2 0.5 0
v 0.3 0.5 0
v 0.4 0.5 -0.2
v 0.5 0.5 -0.2
v 0.4 0.5 -0.3
v 0.5 0.5 -0.3
v -0.4 0.6 0.3
v -0.3 0.6 0.3
v 0.3 0.6 0.3
v 0.4 0.6 0.3
v -0.4 0.6 0.2
v 0.4 0.6 0.2
v -0.4 0.6 0.1
v -0.3 0.6 0.1
v 0.3 0.6 0.1
v 0.4 0.6 0.1
v -0.5 0.7 0.4
v -0.4 0.7 0.4
v 0.4 0.7 0.4
v 0.5 0.7 0.4
v -0.5 0.7 0.3
v 0.5 0.7 0.3
v -0.5 0.7 0.2
v -0.4 0.7 0.2
v 0.4 0.7 0.2
v 0.5 0.7 0.2
v -0.6 0.8 0.5
v -0.5 0.8 0.5
v 0.5 0.8 0.5
v 0.6 0.8 0.5
v -0.6 0.8 0.4
v 0.6 0.8 0.4
v -0.6 0.8 0.3
v -0.5 0.8 0.3
v 0.5 0.8 0.3
v 0.6 0.8 0.3
v -0.7 0.9 0.6
v -0.6 0.9 0.6
v 0.6 0.9 0.6
v 0.7 0.9 0.6
v -0.7 0.9 0.5
v 0.7 0.9 0.5
v -0.7 0.9 0.4
v -0.6 0.9 0.4
v 0.6 0.9 0.4
v 0.7 0.9 0.4
v -0.8 1 0.8
v -0.4 1 0.8
v -0.2 1 0.8
v 0.2 1 0.8
v 0.4 1 0.8
v 0.8 1 0.8
v -0.8 1 0.7
v -0.7 1 0.7
v 0.7 1 0.7
v 0.8 1 0.7
v -0.7 1 0.6
v -0.4 1 0.6
v -0.2 1 0.6
v 0.2 1 0.6
v 0.4 1 0.6
v 0.7 1 0.6
v -0.8 1 0.5
v -0.7 1 0.5
v 0.7 1 0.5
v 0.8 1 0.5
v -0.4 1.1 0.8
v -0.2 1.1 0.8
v 0.2 1.1 0.8
v 0.4 1.1 0.8
v -0.4 1.1 0.6
v -0.2 1.1 0.6
v 0.2 1.1 0.6
v 0.4 1.1 0.6
v -0.2 1.2 0.8
v 0.2 1.2 0.8
v -0.2 1.2 0.6
v 0.2 1.2 0.6

# faces
f 4/1/1 2/1/1 1/1/1
f 5/3/1 3/3/1 2/3/1
f 5/1/1 2/1/1 4/1/1
f 6/3/1 3/3/1 5/3/1
f 9/3/1 8/3/1 7/3/1
f 10/3/1 8/3/1 9/3/1
f 11/3/1 8/3/1 10/3/1
f 14/1/1 13/1/1 12/1/1
f 15/1/1 13/1/1 14/1/1
f 18/3/1 17/3/1 16/3/1
f 19/3/1 17/3/1 18/3/1
f 20/3/1 17/3/1 19/3/1
f 25/1/1 22/1/1 21/1/1
f 26/1/1 22/1/1 25/1/1
f 29/3/1 28/3/1 27/3/1
f 30/3/1 28/3/1 29/3/1
f 31/3/1 28/3/1 30/3/1
f 32/1/1 24/1/1 23/1/1
f 33/1/1 24/1/1 32/1/1
f 36/3/1 35/3/1 34/3/1
f 37/3/1 35/3/1 36/3/1
f 38/3/1 35/3/1 37/3/1
f 41/1/1 40/1/1 39/1/1
f 42/1/1 40/1/1 41/1/1
f 45/3/1 44/3/1 43/3/1
f 46/3/1 44/3/1 45/3/1
f 47/3/1 44/3/1 46/3/1
f 51/5/1 49/5/1 48/5/1
f 52/5/1 49/5/1 51/5/1
f 53/3/1 51/3/1 50/3/1
f 54/3/1 51/3/1 53/3/1
f 55/3/1 51/3/1 54/3/1
f 58/1/1 57/1/1 56/1/1
f 59/1/1 57/1/1 58/1/1
f 62/1/1 61/1/1 60/1/1
f 63/1/1 61/1/1 62/1/1
f 67/1/1 65/1/1 64/1/1
f 68/1/1 65/1/1 67/1/1
f 69/1/1 65/1/1 68/1/1
f 70/3/1 67/3/1 66/3/1
f 71/3/1 67/3/1 70/3/1
f 72/5/1 69/5/1 68/5/1
f 73/5/1 69/5/1 72/5/1
f 74/5/1 72/5/1 71/5/1
f 75/5/1 72/5/1 74/5/1
f 79/3/1 77/3/1 76/3/1
f 79/3/1 78/3/1 77/3/1
f 80/3/1 78/3/1 79/3/1
f 84/3/1 82/3/1 81/3/1
f 84/3/1 83/3/1 82/3/1
f 85/3/1 83/3/1 84/3/1
f 88/1/1 87/1/1 86/1/1
f 89/1/1 87/1/1 88/1/1
f 92/1/1 91/1/1 90/1/1
f 93/1/1 91/1/1 92/1/1
f 97/3/1 95/3/1 94/3/1
f 97/3/1 96/3/1 95/3/1
f 98/3/1 96/3/1 97/3/1
f 103/4/1 102/4/1 101/4/1
f 104/4/1 102/4/1 103/4/1
f 105/2/1 104/2/1 103/2/1
f 106/2/1 104/2/1 105/2/1
f 110/3/1 108/3/1 107/3/1
f 110/3/1 109/3/1 108/3/1
f 111/3/1 109/3/1 110/3/1
f 112/1/1 100/1/1 99/1/1
f 114/1/1 112/1/1 99/1/1
f 114/1/1 113/1/1 112/1/1
f 115/1/1 113/1/1 114/1/1
f 119/3/1 117/3/1 116/3/1
f 119/3/1 118/3/1 117/3/1
f 120/3/1 118/3/1 119/3/1
f 124/3/1 122/3/1 121/3/1
f 124/3/1 123/3/1 122/3/1
f 125/3/1 123/3/1 124/3/1
f 128/3/1 127/3/1 126/3/1
f 129/3/1 127/3/1 128/3/1
f 130/3/2 131/3/2 132/3/2
f 132/3/2 131/3/2 133/3/2
f 134/3/2 135/3/2 137/3/2
f 135/3/2 136/3/2 137/3/2
f 137/3/2 136/3/2 138/3/2
f 139/3/2 140/3/2 142/3/2
f 140/3/2 141/3/2 142/3/2
f 142/3/2 141/3/2 143/3/2
f 146/3/2 147/3/2 149/3/2
f 147/3/2 148/3/2 149/3/2
f 149/3/2 148/3/2 150/3/2
f 144/1/2 145/1/2 151/1/2
f 144/1/2 151/1/2 153/1/2
f 151/1/2 152/1/2 153/1/2
f 153/1/2 152/1/2 154/1/2
f 155/1/2 156/1/2 157/1/2
f 157/1/2 156/1/2 158/1/2
f 159/3/2 160/3/2 162/3/2
f 160/3/2 161/3/2 162/3/2
f 162/3/2 161/3/2 163/3/2
f 164/3/2 165/3/2 167/3/2
f 165/3/2 166/3/2 167/3/2
f 167/3/2 166/3/2 168/3/2
f 169/1/2 170/1/2 171/1/2
f 171/1/2 170/1/2 172/1/2
f 173/3/2 174/3/2 176/3/2
f 174/3/2 175/3/2 176/3/2
f 176/3/2 175/3/2 177/3/2
f 178/1/2 179/1/2 181/1/2
f 181/1/2 179/1/2 182/1/2
f 182/1/2 179/1/2 183/1/2
f 180/3/2 181/3/2 184/3/2
f 184/3/2 181/3/2 185/3/2
f 182/5/2 183/5/2 186/5/2
f 186/5/2 183/5/2 187/5/2
f 185/5/2 186/5/2 188/5/2
f 188/5/2 186/5/2 189/5/2
f 190/5/2 191/5/2 193/5/2
f 193/5/2 191/5/2 194/5/2
f 192/3/2 193/3/2 195/3/2
f 195/3/2 193/3/2 196/3/2
f 196/3/2 193/3/2 197/3/2
f 198/1/2 199/1/2 200/1/2
f 200/1/2 199/1/2 201/1/2
f 202/1/2 203/1/2 204/1/2
f 204/1/2 203/1/2 205/1/2
f 206/3/2 207/3/2 208/3/2
f 208/3/2 207/3/2 209/3/2
f 209/3/2 207/3/2 210/3/2
f 211/3/2 212/3/2 213/3/2
f 213/3/2 212/3/2 214/3/2
f 214/3/2 212/3/2 215/3/2
f 216/1/2 217/1/2 218/1/2
f 218/1/2 217/1/2 219/1/2
f 220/1/2 221/1/2 225/1/2
f 225/1/2 221/1/2 226/1/2
f 224/4/2 225/4/2 227/4/2
f 227/4/2 225/4/2 228/4/2
f 227/2/2 228/2/2 229/2/2
f 229/2/2 228/2/2 230/2/2
f 231/3/2 232/3/2 233/3/2
f 233/3/2 232/3/2 234/3/2
f 234/3/2 232/3/2 235/3/2
f 222/1/2 223/1/2 236/1/2
f 236/1/2 223/1/2 237/1/2
f 238/1/2 239/1/2 240/1/2
f 240/1/2 239/1/2 241/1/2
f 242/3/2 243/3/2 244/3/2
f 244/3/2 243/3/2 245/3/2
f 245/3/2 243/3/2 246/3/2
f 247/3/2 248/3/2 249/3/2
f 249/3/2 248/3/2 250/3/2
f 250/3/2 248/3/2 251/3/2
f 252/1/2 253/1/2 255/1/2
f 253/3/2 254/3/2 256/3/2
f 255/1/2 253/1/2 256/1/2
f 256/3/2 254/3/2 257/3/2
f 262/1/3 261/1/3 260/1/3
f 263/1/3 259/1/3 258/1/3
f 264/1/3 262/1/3 260/1/3
f 264/1/3 263/1/3 262/1/3
f 265/1/3 259/1/3 263/1/3
f 265/1/3 263/1/3 264/1/3
f 267/1/3 264/1/3 260/1/3
f 268/1/3 264/1/3 267/1/3
f 270/1/3 266/1/3 265/1/3
f 271/1/3 266/1/3 270/1/3
f 273/1/3 270/1/3 269/1/3
f 274/1/3 270/1/3 273/1/3
f 275/1/3 272/1/3 271/1/3
f 276/1/3 272/1/3 275/1/3
f 279/1/3 278/1/3 277/1/3
f 280/1/3 275/1/3 274/1/3
f 281/1/3 275/1/3 280/1/3
f 282/1/3 279/1/3 277/1/3
f 282/1/3 280/1/3 279/1/3
f 283/1/3 280/1/3 282/1/3
f 284/1/3 282/1/3 277/1/3
f 285/1/3 282/1/3 284/1/3
f 286/1/3 280/1/3 283/1/3
f 287/1/3 280/1/3 286/1/3
f 290/3/3 289/3/3 288/3/3
f 291/3/3 289/3/3 290/3/3
f 294/3/3 293/3/3 292/3/3
f 295/3/3 293/3/3 294/3/3
f 298/3/3 297/3/3 296/3/3
f 299/3/3 297/3/3 298/3/3
f 302/3/3 301/3/3 300/3/3
f 303/3/3 301/3/3 302/3/3
f 306/3/3 305/3/3 304/3/3
f 307/3/3 305/3/3 306/3/3
f 310/3/3 309/3/3 308/3/3
f 311/3/3 309/3/3 310/3/3
f 314/3/3 313/3/3 312/3/3
f 315/3/3 313/3/3 314/3/3
f 318/3/3 317/3/3 316/3/3
f 319/3/3 317/3/3 318/3/3
f 322/3/3 321/3/3 320/3/3
f 323/3/3 321/3/3 322/3/3
f 326/3/3 325/3/3 324/3/3
f 327/3/3 325/3/3 326/3/3
f 330/3/3 329/3/3 328/3/3
f 331/3/3 329/3/3 330/3/3
f 334/3/3 333/3/3 332/3/3
f 335/3/3 333/3/3 334/3/3
f 338/3/3 337/3/3 336/3/3
f 339/3/3 337/3/3 338/3/3
f 344/1/3 341/1/3 340/1/3
f 345/5/3 343/5/3 342/5/3
f 346/5/3 343/5/3 345/5/3
f 348/1/3 344/1/3 340/1/3
f 348/1/3 345/1/3 344/1/3
f 349/1/3 345/1/3 348/1/3
f 350/5/3 347/5/3 346/5/3
f 351/5/3 347/5/3 350/5/3
f 352/5/3 350/5/3 349/5/3
f 353/5/3 350/5/3 352/5/3
f 354/1/3 348/1/3 340/1/3
f 355/1/3 348/1/3 354/1/3
f 359/4/3 357/4/3 356/4/3
f 360/2/3 358/2/3 357/2/3
f 360/4/3 357/4/3 359/4/3
f 361/2/3 358/2/3 360/2/3
f 362/1/4 363/1/4 364/1/4
f 364/1/4 363/1/4 365/1/4
f 366/1/4 367/1/4 368/1/4
f 368/1/4 367/1/4 369/1/4
f 370/1/4 371/1/4 372/1/4
f 372/1/4 371/1/4 373/1/4
f 373/1/4 371/1/4 374/1/4
f 374/1/4 375/1/4 377/1/4
f 377/1/4 375/1/4 378/1/4
f 376/1/4 377/1/4 380/1/4
f 380/1/4 377/1/4 381/1/4
f 378/1/4 379/1/4 382/1/4
f 382/1/4 379/1/4 383/1/4
f 381/1/4 382/1/4 385/1/4
f 385/1/4 382/1/4 386/1/4
f 384/1/4 385/1/4 387/1/4
f 387/1/4 385/1/4 388/1/4
f 388/1/4 385/1/4 389/1/4
f 390/3/4 391/3/4 392/3/4
f 392/3/4 391/3/4 393/3/4
f 394/3/4 395/3/4 396/3/4
f 396/3/4 395/3/4 397/3/4
f 398/3/4 399/3/4 400/3/4
f 400/3/4 399/3/4 401/3/4
f 402/3/4 403/3/4 404/3/4
f 404/3/4 403/3/4 405/3/4
f 406/3/4 407/3/4 408/3/4
f 408/3/4 407/3/4 409/3/4
f 410/3/4 411/3/4 412/3/4
f 412/3/4 411/3/4 413/3/4
f 414/3/4 415/3/4 416/3/4
f 416/3/4 415/3/4 417/3/4
f 418/3/4 419/3/4 420/3/4
f 420/3/4 419/3/4 421/3/4
f 422/3/4 423/3/4 424/3/4
f 424/3/4 423/3/4 425/3/4
f 426/3/4 427/3/4 428/3/4
f 428/3/4 427/3/4 429/3/4
f 430/3/4 431/3/4 432/3/4
f 432/3/4 431/3/4 433/3/4
f 434/3/4 435/3/4 436/3/4
f 436/3/4 435/3/4 437/3/4
f 438/3/4 439/3/4 440/3/4
f 440/3/4 439/3/4 441/3/4
f 442/3/4 443/3/4 444/3/4
f 444/3/4 443/3/4 445/3/4
f 446/1/4 447/1/4 448/1/4
f 448/1/4 447/1/4 449/1/4
f 450/5/4 451/5/4 452/5/4
f 452/5/4 451/5/4 453/5/4
f 453/5/4 454/5/4 456/5/4
f 456/5/4 454/5/4 457/5/4
f 455/5/4 456/5/4 458/5/4
f 458/5/4 456/5/4 459/5/4
f 460/4/4 461/4/4 464/4/4
f 461/2/4 462/2/4 465/2/4
f 464/4/4 461/4/4 465/4/4
f 465/2/4 462/2/4 466/2/4
f 463/1/4 464/1/4 467/1/4
f 467/1/4 464/1/4 468/1/4
f 469/1/4 470/1/4 471/1/4
f 469/1/4 471/1/4 474/1/4
f 471/1/4 472/1/4 474/1/4
f 472/5/4 473/5/4 475/5/4
f 474/1/4 472/1/4 475/1/4
f 475/5/4 473/5/4 476/5/4
f 469/1/4 474/1/4 477/1/4
f 477/1/4 474/1/4 478/1/4
f 483/1/5 480/1/5 479/1/5
f 484/1/5 482/1/5 481/1/5
f 485/1/5 483/1/5 479/1/5
f 485/1/5 484/1/5 483/1/5
f 486/1/5 484/1/5 485/1/5
f 487/1/5 482/1/5 484/1/5
f 487/1/5 484/1/5 486/1/5
f 488/1/5 482/1/5 487/1/5
f 489/1/5 487/1/5 486/1/5
f 490/1/5 487/1/5 489/1/5
f 494/3/5 492/3/5 491/3/5
f 495/3/5 492/3/5 494/3/5
f 497/5/5 494/5/5 493/5/5
f 498/5/5 494/5/5 497/5/5
f 499/5/5 496/5/5 495/5/5
f 500/5/5 496/5/5 499/5/5
f 505/3/5 502/3/5 501/3/5
f 506/3/5 504/3/5 503/3/5
f 507/3/5 505/3/5 501/3/5
f 508/3/5 505/3/5 507/3/5
f 509/3/5 504/3/5 506/3/5
f 510/3/5 504/3/5 509/3/5
f 515/3/5 512/3/5 511/3/5
f 516/3/5 514/3/5 513/3/5
f 517/3/5 515/3/5 511/3/5
f 518/3/5 515/3/5 517/3/5
f 519/3/5 514/3/5 516/3/5
f 520/3/5 514/3/5 519/3/5
f 525/3/5 522/3/5 521/3/5
f 526/3/5 524/3/5 523/3/5
f 527/3/5 525/3/5 521/3/5
f 528/3/5 525/3/5 527/3/5
f 529/3/5 524/3/5 526/3/5
f 530/3/5 524/3/5 529/3/5
f 535/3/5 532/3/5 531/3/5
f 536/3/5 534/3/5 533/3/5
f 537/3/5 535/3/5 531/3/5
f 538/3/5 535/3/5 537/3/5
f 539/3/5 534/3/5 536/3/5
f 540/3/5 534/3/5 539/3/5
f 545/3/5 542/3/5 541/3/5
f 546/3/5 544/3/5 543/3/5
f 547/3/5 545/3/5 541/3/5
f 548/3/5 545/3/5 547/3/5
f 549/3/5 544/3/5 546/3/5
f 550/3/5 544/3/5 549/3/5
f 555/3/5 552/3/5 551/3/5
f 556/3/5 554/3/5 553/3/5
f 557/3/5 555/3/5 551/3/5
f 558/3/5 555/3/5 557/3/5
f 559/3/5 554/3/5 556/3/5
f 560/3/5 554/3/5 559/3/5
f 567/1/5 562/1/5 561/1/5
f 568/1/5 562/1/5 567/1/5
f 569/1/5 562/1/5 568/1/5
f 572/1/5 566/1/5 565/1/5
f 573/1/5 566/1/5 572/1/5
f 574/1/5 566/1/5 573/1/5
f 575/1/5 570/1/5 569/1/5
f 575/3/5 568/3/5 567/3/5
f 575/1/5 569/1/5 568/1/5
f 576/1/5 570/1/5 575/1/5
f 577/1/5 570/1/5 576/1/5
f 578/1/5 564/1/5 563/1/5
f 579/1/5 564/1/5 578/1/5
f 580/1/5 573/1/5 572/1/5
f 580/1/5 572/1/5 571/1/5
f 581/1/5 573/1/5 580/1/5
f 582/3/5 574/3/5 573/3/5
f 582/1/5 573/1/5 581/1/5
f 583/3/5 575/3/5 567/3/5
f 584/3/5 575/3/5 583/3/5
f 585/3/5 574/3/5 582/3/5
f 586/3/5 574/3/5 585/3/5
f 591/1/5 588/1/5 587/1/5
f 592/1/5 588/1/5 591/1/5
f 593/1/5 590/1/5 589/1/5
f 594/1/5 590/1/5 593/1/5
f 597/1/5 596/1/5 595/1/5
f 598/1/5 596/1/5 597/1/5
f 599/1/6 600/1/6 607/1/6
f 601/1/6 602/1/6 608/1/6
f 603/1/6 604/1/6 609/1/6
f 605/1/6 606/1/6 610/1/6
f 607/1/6 608/1/6 611/1/6
f 608/1/6 602/1/6 611/1/6
f 603/1/6 609/1/6 614/1/6
f 609/1/6 610/1/6 614/1/6
f 614/1/6 610/1/6 615/1/6
f 613/1/6 614/1/6 615/1/6
f 610/1/6 606/1/6 616/1/6
f 615/1/6 610/1/6 616/1/6
f 611/1/6 612/1/6 617/1/6
f 599/1/6 607/1/6 617/1/6
f 607/1/6 611/1/6 617/1/6
f 617/1/6 612/1/6 618/1/6
f 613/1/6 615/1/6 619/1/6
f 616/1/6 606/1/6 620/1/6
f 620/1/6 606/1/6 621/1/6
f 618/1/6 612/1/6 622/1/6
f 622/1/6 612/1/6 623/1/6
f 613/1/6 619/1/6 624/1/6
f 619/1/6 620/1/6 624/1/6
f 624/1/6 620/1/6 625/1/6
f 626/3/6 627/3/6 629/3/6
f 629/3/6 627/3/6 630/3/6
f 628/5/6 629/5/6 632/5/6
f 632/5/6 629/5/6 633/5/6
f 630/5/6 631/5/6 634/5/6
f 634/5/6 631/5/6 635/5/6
f 633/5/6 634/5/6 636/5/6
f 636/5/6 634/5/6 637/5/6
f 638/3/6 639/3/6 642/3/6
f 640/3/6 641/3/6 643/3/6
f 642/3/6 639/3/6 644/3/6
f 644/3/6 639/3/6 645/3/6
f 640/3/6 643/3/6 646/3/6
f 646/3/6 643/3/6 647/3/6
f 645/5/6 646/5/6 648/5/6
f 648/5/6 646/5/6 649/5/6
f 650/3/6 651/3/6 654/3/6
f 652/3/6 653/3/6 655/3/6
f 654/3/6 651/3/6 656/3/6
f 656/3/6 651/3/6 657/3/6
f 652/3/6 655/3/6 658/3/6
f 658/3/6 655/3/6 659/3/6
f 660/2/6 661/2/6 662/2/6
f 662/2/6 661/2/6 663/2/6
f 664/3/6 665/3/6 668/3/6
f 666/3/6 667/3/6 669/3/6
f 668/3/6 665/3/6 670/3/6
f 670/3/6 665/3/6 671/3/6
f 666/3/6 669/3/6 672/3/6
f 672/3/6 669/3/6 673/3/6
f 674/3/6 675/3/6 678/3/6
f 676/3/6 677/3/6 679/3/6
f 678/3/6 675/3/6 680/3/6
f 680/3/6 675/3/6 681/3/6
f 676/3/6 679/3/6 682/3/6
f 682/3/6 679/3/6 683/3/6
f 684/3/6 685/3/6 688/3/6
f 686/3/6 687/3/6 689/3/6
f 688/3/6 685/3/6 690/3/6
f 690/3/6 685/3/6 691/3/6
f 686/3/6 689/3/6 692/3/6
f 692/3/6 689/3/6 693/3/6
f 694/3/6 695/3/6 698/3/6
f 696/3/6 697/3/6 699/3/6
f 698/3/6 695/3/6 700/3/6
f 700/3/6 695/3/6 701/3/6
f 696/3/6 699/3/6 702/3/6
f 702/3/6 699/3/6 703/3/6
f 704/1/6 705/1/6 710/1/6
f 710/1/6 705/1/6 711/1/6
f 708/1/6 709/1/6 712/1/6
f 712/1/6 709/1/6 713/1/6
f 711/1/6 705/1/6 714/1/6
f 710/3/6 711/3/6 714/3/6
f 714/1/6 705/1/6 715/1/6
f 706/1/6 707/1/6 716/1/6
f 716/1/6 707/1/6 717/1/6
f 708/1/6 712/1/6 718/1/6
f 712/3/6 713/3/6 719/3/6
f 718/1/6 712/1/6 719/1/6
f 710/3/6 714/3/6 720/3/6
f 720/3/6 714/3/6 721/3/6
f 719/3/6 713/3/6 722/3/6
f 722/3/6 713/3/6 723/3/6
f 724/1/6 725/1/6 728/1/6
f 728/1/6 725/1/6 729/1/6
f 726/1/6 727/1/6 730/1/6
f 730/1/6 727/1/6 731/1/6
f 732/1/6 733/1/6 734/1/6
f 734/1/6 733/1/6 735/1/6
