# MagicaVoxel @ Ephtracy

# group
o 

# material
mtllib Flecha THDV.mtl
usemtl palette

# normals
vn -1 0 0
vn 1 0 0
vn 0 0 1
vn 0 0 -1
vn 0 -1 0
vn 0 1 0

# texcoords
vt 0.373047 0.5
vt 0.962891 0.5
vt 0.974609 0.5

# verts
v -0.2 0.2 0.3
v -0.2 0.2 0.2
v -0.2 0.3 0.3
v -0.2 0.3 0.2
v -0.1 0.2 0.6
v -0.1 0.2 0.3
v -0.1 0.2 -0.5
v -0.1 0.2 -0.8
v -0.1 0.3 0.6
v -0.1 0.3 0.3
v -0.1 0.3 -0.5
v -0.1 0.3 -0.8
v 2.98023e-08 0 0.3
v 2.98023e-08 0 0.2
v 2.98023e-08 0.1 0.6
v 2.98023e-08 0.1 0.3
v 2.98023e-08 0.1 0.2
v 2.98023e-08 0.1 -0.5
v 2.98023e-08 0.1 -0.8
v 2.98023e-08 0.2 0.7
v 2.98023e-08 0.2 0.6
v 2.98023e-08 0.2 0.3
v 2.98023e-08 0.2 -0.5
v 2.98023e-08 0.2 -0.8
v 2.98023e-08 0.3 0.7
v 2.98023e-08 0.3 0.6
v 2.98023e-08 0.3 0.3
v 2.98023e-08 0.3 -0.5
v 2.98023e-08 0.3 -0.8
v 2.98023e-08 0.4 0.6
v 2.98023e-08 0.4 0.3
v 2.98023e-08 0.4 0.2
v 2.98023e-08 0.4 -0.5
v 2.98023e-08 0.4 -0.8
v 2.98023e-08 0.5 0.3
v 2.98023e-08 0.5 0.2
v 0.1 0.2 -0.6
v 0.1 0.2 -0.8
v 0.1 0.3 -0.6
v 0.1 0.3 -0.8
v 0.2 0.2 0.3
v 0.2 0.2 0.2
v 0.2 0.3 0.3
v 0.2 0.3 0.2
v -0.1 0.2 0.3
v -0.1 0.2 0.2
v -0.1 0.3 0.3
v -0.1 0.3 0.2
v 2.98023e-08 0.2 -0.6
v 2.98023e-08 0.2 -0.8
v 2.98023e-08 0.3 -0.6
v 2.98023e-08 0.3 -0.8
v 0.1 0 0.3
v 0.1 0 0.2
v 0.1 0.1 0.6
v 0.1 0.1 0.3
v 0.1 0.1 0.2
v 0.1 0.1 -0.5
v 0.1 0.1 -0.8
v 0.1 0.2 0.7
v 0.1 0.2 0.6
v 0.1 0.2 0.3
v 0.1 0.2 -0.5
v 0.1 0.2 -0.8
v 0.1 0.3 0.7
v 0.1 0.3 0.6
v 0.1 0.3 0.3
v 0.1 0.3 -0.5
v 0.1 0.3 -0.8
v 0.1 0.4 0.6
v 0.1 0.4 0.3
v 0.1 0.4 0.2
v 0.1 0.4 -0.5
v 0.1 0.4 -0.8
v 0.1 0.5 0.3
v 0.1 0.5 0.2
v 0.2 0.2 0.6
v 0.2 0.2 0.3
v 0.2 0.2 -0.5
v 0.2 0.2 -0.8
v 0.2 0.3 0.6
v 0.2 0.3 0.3
v 0.2 0.3 -0.5
v 0.2 0.3 -0.8
v 0.3 0.2 0.3
v 0.3 0.2 0.2
v 0.3 0.3 0.3
v 0.3 0.3 0.2
v 2.98023e-08 0.2 0.7
v 2.98023e-08 0.3 0.7
v 0.1 0.2 0.7
v 0.1 0.3 0.7
v -0.1 0.2 0.6
v -0.1 0.3 0.6
v 2.98023e-08 0.1 0.6
v 2.98023e-08 0.2 0.6
v 2.98023e-08 0.3 0.6
v 2.98023e-08 0.4 0.6
v 0.1 0.1 0.6
v 0.1 0.2 0.6
v 0.1 0.3 0.6
v 0.1 0.4 0.6
v 0.2 0.2 0.6
v 0.2 0.3 0.6
v -0.2 0.2 0.3
v -0.2 0.3 0.3
v -0.1 0.2 0.3
v -0.1 0.3 0.3
v 2.98023e-08 0 0.3
v 2.98023e-08 0.1 0.3
v 2.98023e-08 0.4 0.3
v 2.98023e-08 0.5 0.3
v 0.1 0 0.3
v 0.1 0.1 0.3
v 0.1 0.4 0.3
v 0.1 0.5 0.3
v 0.2 0.2 0.3
v 0.2 0.3 0.3
v 0.3 0.2 0.3
v 0.3 0.3 0.3
v -0.1 0.2 -0.5
v -0.1 0.3 -0.5
v 2.98023e-08 0.1 -0.5
v 2.98023e-08 0.2 -0.5
v 2.98023e-08 0.3 -0.5
v 2.98023e-08 0.4 -0.5
v 0.1 0.1 -0.5
v 0.1 0.2 -0.5
v 0.1 0.3 -0.5
v 0.1 0.4 -0.5
v 0.2 0.2 -0.5
v 0.2 0.3 -0.5
v -0.1 0.2 0.3
v -0.1 0.3 0.3
v 2.98023e-08 0.1 0.3
v 2.98023e-08 0.2 0.3
v 2.98023e-08 0.3 0.3
v 2.98023e-08 0.4 0.3
v 0.1 0.1 0.3
v 0.1 0.2 0.3
v 0.1 0.3 0.3
v 0.1 0.4 0.3
v 0.2 0.2 0.3
v 0.2 0.3 0.3
v -0.2 0.2 0.2
v -0.2 0.3 0.2
v -0.1 0.2 0.2
v -0.1 0.3 0.2
v 2.98023e-08 0 0.2
v 2.98023e-08 0.1 0.2
v 2.98023e-08 0.4 0.2
v 2.98023e-08 0.5 0.2
v 0.1 0 0.2
v 0.1 0.1 0.2
v 0.1 0.4 0.2
v 0.1 0.5 0.2
v 0.2 0.2 0.2
v 0.2 0.3 0.2
v 0.3 0.2 0.2
v 0.3 0.3 0.2
v 2.98023e-08 0.2 -0.6
v 2.98023e-08 0.3 -0.6
v 0.1 0.2 -0.6
v 0.1 0.3 -0.6
v -0.1 0.2 -0.8
v -0.1 0.3 -0.8
v 2.98023e-08 0.1 -0.8
v 2.98023e-08 0.2 -0.8
v 2.98023e-08 0.3 -0.8
v 2.98023e-08 0.4 -0.8
v 0.1 0.1 -0.8
v 0.1 0.2 -0.8
v 0.1 0.3 -0.8
v 0.1 0.4 -0.8
v 0.2 0.2 -0.8
v 0.2 0.3 -0.8
v 2.98023e-08 0 0.3
v 0.1 0 0.3
v 2.98023e-08 0 0.2
v 0.1 0 0.2
v 2.98023e-08 0.1 0.6
v 0.1 0.1 0.6
v 2.98023e-08 0.1 0.3
v 0.1 0.1 0.3
v 2.98023e-08 0.1 -0.5
v 0.1 0.1 -0.5
v 2.98023e-08 0.1 -0.8
v 0.1 0.1 -0.8
v 2.98023e-08 0.2 0.7
v 0.1 0.2 0.7
v -0.1 0.2 0.6
v 2.98023e-08 0.2 0.6
v 0.1 0.2 0.6
v 0.2 0.2 0.6
v -0.2 0.2 0.3
v -0.1 0.2 0.3
v 2.98023e-08 0.2 0.3
v 0.1 0.2 0.3
v 0.2 0.2 0.3
v 0.3 0.2 0.3
v -0.2 0.2 0.2
v -0.1 0.2 0.2
v 0.2 0.2 0.2
v 0.3 0.2 0.2
v -0.1 0.2 -0.5
v 2.98023e-08 0.2 -0.5
v 0.1 0.2 -0.5
v 0.2 0.2 -0.5
v -0.1 0.2 -0.8
v 2.98023e-08 0.2 -0.8
v 0.1 0.2 -0.8
v 0.2 0.2 -0.8
v 2.98023e-08 0.3 -0.6
v 0.1 0.3 -0.6
v 2.98023e-08 0.3 -0.8
v 0.1 0.3 -0.8
v 2.98023e-08 0.4 0.3
v 0.1 0.4 0.3
v 2.98023e-08 0.4 0.2
v 0.1 0.4 0.2
v 2.98023e-08 0.1 0.3
v 0.1 0.1 0.3
v 2.98023e-08 0.1 0.2
v 0.1 0.1 0.2
v 2.98023e-08 0.2 -0.6
v 0.1 0.2 -0.6
v 2.98023e-08 0.2 -0.8
v 0.1 0.2 -0.8
v 2.98023e-08 0.3 0.7
v 0.1 0.3 0.7
v -0.1 0.3 0.6
v 2.98023e-08 0.3 0.6
v 0.1 0.3 0.6
v 0.2 0.3 0.6
v -0.2 0.3 0.3
v -0.1 0.3 0.3
v 2.98023e-08 0.3 0.3
v 0.1 0.3 0.3
v 0.2 0.3 0.3
v 0.3 0.3 0.3
v -0.2 0.3 0.2
v -0.1 0.3 0.2
v 0.2 0.3 0.2
v 0.3 0.3 0.2
v -0.1 0.3 -0.5
v 2.98023e-08 0.3 -0.5
v 0.1 0.3 -0.5
v 0.2 0.3 -0.5
v -0.1 0.3 -0.8
v 2.98023e-08 0.3 -0.8
v 0.1 0.3 -0.8
v 0.2 0.3 -0.8
v 2.98023e-08 0.4 0.6
v 0.1 0.4 0.6
v 2.98023e-08 0.4 0.3
v 0.1 0.4 0.3
v 2.98023e-08 0.4 -0.5
v 0.1 0.4 -0.5
v 2.98023e-08 0.4 -0.8
v 0.1 0.4 -0.8
v 2.98023e-08 0.5 0.3
v 0.1 0.5 0.3
v 2.98023e-08 0.5 0.2
v 0.1 0.5 0.2

# faces
f 3/3/1 2/3/1 1/3/1
f 4/3/1 2/3/1 3/3/1
f 9/3/1 6/3/1 5/3/1
f 10/3/1 6/3/1 9/3/1
f 11/2/1 8/2/1 7/2/1
f 12/2/1 8/2/1 11/2/1
f 16/3/1 14/3/1 13/3/1
f 17/3/1 14/3/1 16/3/1
f 21/3/1 16/3/1 15/3/1
f 22/3/1 16/3/1 21/3/1
f 23/2/1 19/2/1 18/2/1
f 24/2/1 19/2/1 23/2/1
f 25/3/1 21/3/1 20/3/1
f 26/3/1 21/3/1 25/3/1
f 27/1/1 23/1/1 22/1/1
f 28/1/1 23/1/1 27/1/1
f 30/3/1 27/3/1 26/3/1
f 31/3/1 27/3/1 30/3/1
f 33/2/1 29/2/1 28/2/1
f 34/2/1 29/2/1 33/2/1
f 35/3/1 32/3/1 31/3/1
f 36/3/1 32/3/1 35/3/1
f 39/2/1 38/2/1 37/2/1
f 40/2/1 38/2/1 39/2/1
f 43/3/1 42/3/1 41/3/1
f 44/3/1 42/3/1 43/3/1
f 45/3/2 46/3/2 47/3/2
f 47/3/2 46/3/2 48/3/2
f 49/2/2 50/2/2 51/2/2
f 51/2/2 50/2/2 52/2/2
f 53/3/2 54/3/2 56/3/2
f 56/3/2 54/3/2 57/3/2
f 55/3/2 56/3/2 61/3/2
f 61/3/2 56/3/2 62/3/2
f 58/2/2 59/2/2 63/2/2
f 63/2/2 59/2/2 64/2/2
f 60/3/2 61/3/2 65/3/2
f 65/3/2 61/3/2 66/3/2
f 62/1/2 63/1/2 67/1/2
f 67/1/2 63/1/2 68/1/2
f 66/3/2 67/3/2 70/3/2
f 70/3/2 67/3/2 71/3/2
f 68/2/2 69/2/2 73/2/2
f 73/2/2 69/2/2 74/2/2
f 71/3/2 72/3/2 75/3/2
f 75/3/2 72/3/2 76/3/2
f 77/3/2 78/3/2 81/3/2
f 81/3/2 78/3/2 82/3/2
f 79/2/2 80/2/2 83/2/2
f 83/2/2 80/2/2 84/2/2
f 85/3/2 86/3/2 87/3/2
f 87/3/2 86/3/2 88/3/2
f 91/3/3 90/3/3 89/3/3
f 92/3/3 90/3/3 91/3/3
f 96/3/3 94/3/3 93/3/3
f 97/3/3 94/3/3 96/3/3
f 99/3/3 96/3/3 95/3/3
f 100/3/3 96/3/3 99/3/3
f 101/3/3 98/3/3 97/3/3
f 102/3/3 98/3/3 101/3/3
f 103/3/3 101/3/3 100/3/3
f 104/3/3 101/3/3 103/3/3
f 107/3/3 106/3/3 105/3/3
f 108/3/3 106/3/3 107/3/3
f 113/3/3 110/3/3 109/3/3
f 114/3/3 110/3/3 113/3/3
f 115/3/3 112/3/3 111/3/3
f 116/3/3 112/3/3 115/3/3
f 119/3/3 118/3/3 117/3/3
f 120/3/3 118/3/3 119/3/3
f 124/2/3 122/2/3 121/2/3
f 125/2/3 122/2/3 124/2/3
f 127/2/3 124/2/3 123/2/3
f 128/2/3 124/2/3 127/2/3
f 129/2/3 126/2/3 125/2/3
f 130/2/3 126/2/3 129/2/3
f 131/2/3 129/2/3 128/2/3
f 132/2/3 129/2/3 131/2/3
f 133/3/4 134/3/4 136/3/4
f 136/3/4 134/3/4 137/3/4
f 135/3/4 136/3/4 139/3/4
f 139/3/4 136/3/4 140/3/4
f 137/3/4 138/3/4 141/3/4
f 141/3/4 138/3/4 142/3/4
f 140/3/4 141/3/4 143/3/4
f 143/3/4 141/3/4 144/3/4
f 145/3/4 146/3/4 147/3/4
f 147/3/4 146/3/4 148/3/4
f 149/3/4 150/3/4 153/3/4
f 153/3/4 150/3/4 154/3/4
f 151/3/4 152/3/4 155/3/4
f 155/3/4 152/3/4 156/3/4
f 157/3/4 158/3/4 159/3/4
f 159/3/4 158/3/4 160/3/4
f 161/1/4 162/1/4 163/1/4
f 163/1/4 162/1/4 164/1/4
f 165/2/4 166/2/4 168/2/4
f 168/2/4 166/2/4 169/2/4
f 167/2/4 168/2/4 171/2/4
f 171/2/4 168/2/4 172/2/4
f 169/2/4 170/2/4 173/2/4
f 173/2/4 170/2/4 174/2/4
f 172/2/4 173/2/4 175/2/4
f 175/2/4 173/2/4 176/2/4
f 179/3/5 178/3/5 177/3/5
f 180/3/5 178/3/5 179/3/5
f 183/3/5 182/3/5 181/3/5
f 184/3/5 182/3/5 183/3/5
f 187/2/5 186/2/5 185/2/5
f 188/2/5 186/2/5 187/2/5
f 192/3/5 190/3/5 189/3/5
f 193/3/5 190/3/5 192/3/5
f 196/3/5 192/3/5 191/3/5
f 197/3/5 192/3/5 196/3/5
f 198/3/5 194/3/5 193/3/5
f 199/3/5 194/3/5 198/3/5
f 201/3/5 196/3/5 195/3/5
f 202/3/5 196/3/5 201/3/5
f 203/3/5 200/3/5 199/3/5
f 204/3/5 200/3/5 203/3/5
f 206/1/5 198/1/5 197/1/5
f 207/1/5 198/1/5 206/1/5
f 209/2/5 206/2/5 205/2/5
f 210/2/5 206/2/5 209/2/5
f 211/2/5 208/2/5 207/2/5
f 212/2/5 208/2/5 211/2/5
f 215/2/5 214/2/5 213/2/5
f 216/2/5 214/2/5 215/2/5
f 219/3/5 218/3/5 217/3/5
f 220/3/5 218/3/5 219/3/5
f 221/3/6 222/3/6 223/3/6
f 223/3/6 222/3/6 224/3/6
f 225/2/6 226/2/6 227/2/6
f 227/2/6 226/2/6 228/2/6
f 229/3/6 230/3/6 232/3/6
f 232/3/6 230/3/6 233/3/6
f 231/3/6 232/3/6 236/3/6
f 236/3/6 232/3/6 237/3/6
f 233/3/6 234/3/6 238/3/6
f 238/3/6 234/3/6 239/3/6
f 235/3/6 236/3/6 241/3/6
f 241/3/6 236/3/6 242/3/6
f 239/3/6 240/3/6 243/3/6
f 243/3/6 240/3/6 244/3/6
f 237/1/6 238/1/6 246/1/6
f 246/1/6 238/1/6 247/1/6
f 245/2/6 246/2/6 249/2/6
f 249/2/6 246/2/6 250/2/6
f 247/2/6 248/2/6 251/2/6
f 251/2/6 248/2/6 252/2/6
f 253/3/6 254/3/6 255/3/6
f 255/3/6 254/3/6 256/3/6
f 257/2/6 258/2/6 259/2/6
f 259/2/6 258/2/6 260/2/6
f 261/3/6 262/3/6 263/3/6
f 263/3/6 262/3/6 264/3/6
