# MagicaVoxel @ Ephtracy

# group
o 

# material
mtllib Caballero THDV.mtl
usemtl palette

# normals
vn -1 0 0
vn 1 0 0
vn 0 0 1
vn 0 0 -1
vn 0 -1 0
vn 0 1 0

# texcoords
vt 0.0292969 0.5
vt 0.865234 0.5
vt 0.978516 0.5
vt 0.986328 0.5
vt 0.990234 0.5

# verts
v -0.7 0.8 0
v -0.7 0.8 -0.1
v -0.7 0.9 0
v -0.7 0.9 -0.1
v -0.6 0.3 0.1
v -0.6 0.3 -0.2
v -0.6 0.8 0.1
v -0.6 0.8 0
v -0.6 0.8 -0.1
v -0.6 0.8 -0.2
v -0.6 0.9 0.1
v -0.6 0.9 0
v -0.6 0.9 -0.1
v -0.6 0.9 -0.2
v -0.6 1 0
v -0.6 1 -0.1
v -0.4 0 0.1
v -0.4 0 -0.1
v -0.4 0.1 0.1
v -0.4 0.1 0
v -0.4 0.1 -0.1
v -0.4 0.1 -0.2
v -0.4 0.3 0
v -0.4 0.3 -0.2
v -0.4 0.7 -0.1
v -0.4 0.7 -0.2
v -0.4 0.8 -0.1
v -0.4 0.8 -0.2
v -0.4 0.9 0.2
v -0.4 0.9 0.1
v -0.4 0.9 0
v -0.4 0.9 -0.1
v -0.4 0.9 -0.2
v -0.4 1 0
v -0.4 1 -0.1
v -0.4 1.2 0.2
v -0.4 1.2 -0.2
v -0.3 0.2 0.1
v -0.3 0.2 0
v -0.3 0.3 0.1
v -0.3 0.3 0
v -0.3 0.3 -0.2
v -0.3 0.3 -0.3
v -0.3 0.8 0.2
v -0.3 0.8 0.1
v -0.3 0.8 0
v -0.3 0.8 -0.2
v -0.3 0.8 -0.3
v -0.3 0.9 0.3
v -0.3 0.9 0.2
v -0.3 0.9 0.1
v -0.3 0.9 0
v -0.3 0.9 -0.2
v -0.3 0.9 -0.3
v -0.3 1.2 0.3
v -0.3 1.2 0.2
v -0.3 1.2 -0.2
v -0.3 1.2 -0.3
v -0.3 1.3 0.2
v -0.3 1.3 -0.2
v -0.2 0.3 0.2
v -0.2 0.3 0.1
v -0.2 0.7 0.3
v -0.2 0.7 0.2
v -0.2 0.8 0.3
v -0.2 0.8 0.2
v -0.2 0.8 0.1
v -0.2 0.8 -0.2
v -0.2 0.8 -0.3
v -0.2 0.9 -0.2
v -0.2 0.9 -0.3
v -0.2 1.2 0.3
v -0.2 1.2 0.2
v -0.2 1.3 0.3
v -0.2 1.3 0.2
v -0.2 1.3 -0.2
v -0.2 1.4 0.2
v -0.2 1.4 -0.2
v -0.1 0.4 0.3
v -0.1 0.4 0.2
v -0.1 0.6 -0.3
v -0.1 0.6 -0.4
v -0.1 0.7 0.3
v -0.1 0.7 0.2
v -0.1 0.8 0.3
v -0.1 0.8 0.2
v -0.1 0.8 -0.3
v -0.1 0.9 0.3
v -0.1 0.9 0.2
v -0.1 1.2 -0.2
v -0.1 1.2 -0.3
v -0.1 1.2 -0.4
v -0.1 1.3 0.3
v -0.1 1.3 0.2
v -0.1 1.4 0.3
v -0.1 1.4 0.2
v -0.1 1.4 -0.1
v -0.1 1.4 -0.2
v -0.1 1.4 -0.3
v -0.1 1.5 0.2
v -0.1 1.5 -0.1
v 0.1 0.8 0.2
v 0.1 0.8 0.1
v 0.1 0.8 -0.2
v 0.1 0.8 -0.3
v 0.1 0.9 0.2
v 0.1 0.9 0.1
v 0.1 0.9 -0.2
v 0.1 0.9 -0.3
v 0.1 1.2 0.3
v 0.1 1.2 0.2
v 0.1 1.3 0.3
v 0.1 1.3 0.2
v 0.2 0 0.1
v 0.2 0 -0.1
v 0.2 0.1 0.1
v 0.2 0.1 0
v 0.2 0.1 -0.1
v 0.2 0.1 -0.2
v 0.2 0.2 0
v 0.2 0.2 -0.2
v 0.2 0.9 0.3
v 0.2 0.9 0.2
v 0.2 1.1 0.2
v 0.2 1.2 0.3
v 0.2 1.2 0.2
v -0.5 0.7 -0.1
v -0.5 0.7 -0.2
v -0.5 0.8 -0.1
v -0.5 0.8 -0.2
v -0.4 0.8 0
v -0.4 0.8 -0.2
v -0.4 0.9 0
v -0.4 0.9 -0.2
v -0.2 0 0.1
v -0.2 0 -0.1
v -0.2 0.1 0.1
v -0.2 0.1 0
v -0.2 0.1 -0.1
v -0.2 0.1 -0.2
v -0.2 0.2 0
v -0.2 0.2 -0.2
v -0.2 0.9 0.3
v -0.2 0.9 0.2
v -0.2 1.1 0.2
v -0.2 1.2 0.3
v -0.2 1.2 0.2
v -0.1 0.8 0.2
v -0.1 0.8 0.1
v -0.1 0.9 0.2
v -0.1 0.9 0.1
v -0.1 1.2 0.3
v -0.1 1.2 0.2
v -0.1 1.3 0.3
v -0.1 1.3 0.2
v 0 0.8 -0.2
v 0 0.8 -0.3
v 0 0.9 -0.2
v 0 0.9 -0.3
v 0.1 0.4 0.3
v 0.1 0.4 0.2
v 0.1 0.6 -0.3
v 0.1 0.6 -0.4
v 0.1 0.7 0.3
v 0.1 0.7 0.2
v 0.1 0.8 0.3
v 0.1 0.8 0.2
v 0.1 0.8 -0.3
v 0.1 0.9 0.3
v 0.1 0.9 0.2
v 0.1 1.2 -0.2
v 0.1 1.2 -0.3
v 0.1 1.2 -0.4
v 0.1 1.3 0.3
v 0.1 1.3 0.2
v 0.1 1.4 0.3
v 0.1 1.4 0.2
v 0.1 1.4 -0.1
v 0.1 1.4 -0.2
v 0.1 1.4 -0.3
v 0.1 1.5 0.2
v 0.1 1.5 -0.1
v 0.2 0.3 0.2
v 0.2 0.3 0.1
v 0.2 0.7 0.3
v 0.2 0.7 0.2
v 0.2 0.8 0.3
v 0.2 0.8 0.2
v 0.2 0.8 0.1
v 0.2 0.8 -0.2
v 0.2 0.8 -0.3
v 0.2 0.9 -0.2
v 0.2 0.9 -0.3
v 0.2 1.2 0.3
v 0.2 1.2 0.2
v 0.2 1.3 0.3
v 0.2 1.3 0.2
v 0.2 1.3 -0.2
v 0.2 1.4 0.2
v 0.2 1.4 -0.2
v 0.3 0.2 0.1
v 0.3 0.2 0
v 0.3 0.3 0.1
v 0.3 0.3 0
v 0.3 0.3 -0.2
v 0.3 0.3 -0.3
v 0.3 0.8 0.2
v 0.3 0.8 0.1
v 0.3 0.8 -0.2
v 0.3 0.8 -0.3
v 0.3 0.9 0.3
v 0.3 0.9 0.2
v 0.3 0.9 0.1
v 0.3 0.9 -0.2
v 0.3 0.9 -0.3
v 0.3 1.2 0.3
v 0.3 1.2 0.2
v 0.3 1.2 -0.2
v 0.3 1.2 -0.3
v 0.3 1.3 0.2
v 0.3 1.3 -0.2
v 0.4 0 0.1
v 0.4 0 -0.1
v 0.4 0.1 0.1
v 0.4 0.1 0
v 0.4 0.1 -0.1
v 0.4 0.1 -0.2
v 0.4 0.3 0
v 0.4 0.3 -0.2
v 0.4 0.9 0.2
v 0.4 0.9 0.1
v 0.4 0.9 0
v 0.4 0.9 -0.1
v 0.4 0.9 -0.2
v 0.4 1 0
v 0.4 1 -0.1
v 0.4 1.2 0.2
v 0.4 1.2 -0.2
v 0.6 0.3 0.1
v 0.6 0.3 -0.2
v 0.6 0.8 0.1
v 0.6 0.8 0
v 0.6 0.8 -0.1
v 0.6 0.8 -0.2
v 0.6 0.9 0.1
v 0.6 0.9 0
v 0.6 0.9 -0.1
v 0.6 0.9 -0.2
v 0.6 1 0
v 0.6 1 -0.1
v 0.7 0.8 0
v 0.7 0.8 -0.1
v 0.7 0.9 0
v 0.7 0.9 -0.1
v -0.3 0.9 0.3
v -0.3 1.2 0.3
v -0.2 0.7 0.3
v -0.2 0.8 0.3
v -0.2 0.9 0.3
v -0.2 1.2 0.3
v -0.2 1.3 0.3
v -0.1 0.4 0.3
v -0.1 0.7 0.3
v -0.1 0.8 0.3
v -0.1 0.9 0.3
v -0.1 1.2 0.3
v -0.1 1.3 0.3
v -0.1 1.4 0.3
v 0.1 0.4 0.3
v 0.1 0.7 0.3
v 0.1 0.8 0.3
v 0.1 0.9 0.3
v 0.1 1.2 0.3
v 0.1 1.3 0.3
v 0.1 1.4 0.3
v 0.2 0.7 0.3
v 0.2 0.8 0.3
v 0.2 0.9 0.3
v 0.2 1.2 0.3
v 0.2 1.3 0.3
v 0.3 0.9 0.3
v 0.3 1.2 0.3
v -0.4 0.9 0.2
v -0.4 1.2 0.2
v -0.3 0.8 0.2
v -0.3 0.9 0.2
v -0.3 1.2 0.2
v -0.3 1.3 0.2
v -0.2 0.3 0.2
v -0.2 0.7 0.2
v -0.2 0.8 0.2
v -0.2 0.9 0.2
v -0.2 1.1 0.2
v -0.2 1.2 0.2
v -0.2 1.3 0.2
v -0.2 1.4 0.2
v -0.1 0.4 0.2
v -0.1 0.7 0.2
v -0.1 0.8 0.2
v -0.1 0.9 0.2
v -0.1 1 0.2
v -0.1 1.1 0.2
v -0.1 1.2 0.2
v -0.1 1.3 0.2
v -0.1 1.4 0.2
v -0.1 1.5 0.2
v 0.1 0.4 0.2
v 0.1 0.7 0.2
v 0.1 0.8 0.2
v 0.1 0.9 0.2
v 0.1 1 0.2
v 0.1 1.1 0.2
v 0.1 1.2 0.2
v 0.1 1.3 0.2
v 0.1 1.4 0.2
v 0.1 1.5 0.2
v 0.2 0.3 0.2
v 0.2 0.7 0.2
v 0.2 0.8 0.2
v 0.2 0.9 0.2
v 0.2 1.1 0.2
v 0.2 1.2 0.2
v 0.2 1.3 0.2
v 0.2 1.4 0.2
v 0.3 0.8 0.2
v 0.3 0.9 0.2
v 0.3 1.2 0.2
v 0.3 1.3 0.2
v 0.4 0.9 0.2
v 0.4 1.2 0.2
v -0.6 0.3 0.1
v -0.6 0.8 0.1
v -0.6 0.9 0.1
v -0.4 0 0.1
v -0.4 0.1 0.1
v -0.4 0.3 0.1
v -0.4 0.8 0.1
v -0.4 0.9 0.1
v -0.3 0.2 0.1
v -0.3 0.3 0.1
v -0.3 0.8 0.1
v -0.3 0.9 0.1
v -0.2 0 0.1
v -0.2 0.1 0.1
v -0.2 0.3 0.1
v -0.2 0.8 0.1
v -0.1 0.8 0.1
v -0.1 0.9 0.1
v 0.1 0.8 0.1
v 0.1 0.9 0.1
v 0.2 0 0.1
v 0.2 0.1 0.1
v 0.2 0.3 0.1
v 0.2 0.8 0.1
v 0.3 0.2 0.1
v 0.3 0.3 0.1
v 0.3 0.8 0.1
v 0.3 0.9 0.1
v 0.4 0 0.1
v 0.4 0.1 0.1
v 0.4 0.3 0.1
v 0.4 0.8 0.1
v 0.4 0.9 0.1
v 0.6 0.3 0.1
v 0.6 0.8 0.1
v 0.6 0.9 0.1
v -0.7 0.8 0
v -0.7 0.9 0
v -0.6 0.8 0
v -0.6 0.9 0
v -0.6 1 0
v -0.4 0.1 0
v -0.4 0.3 0
v -0.4 0.9 0
v -0.4 1 0
v -0.3 0.2 0
v -0.3 0.3 0
v -0.2 0.1 0
v -0.2 0.2 0
v 0.2 0.1 0
v 0.2 0.2 0
v 0.3 0.2 0
v 0.3 0.3 0
v 0.4 0.1 0
v 0.4 0.3 0
v 0.4 0.9 0
v 0.4 1 0
v 0.6 0.8 0
v 0.6 0.9 0
v 0.6 1 0
v 0.7 0.8 0
v 0.7 0.9 0
v 0 0.8 -0.3
v 0 0.9 -0.3
v 0.1 0.8 -0.3
v 0.1 0.9 -0.3
v -0.1 0.8 0.2
v -0.1 0.9 0.2
v 0.1 0.8 0.2
v 0.1 0.9 0.2
v -0.4 0.8 0
v -0.4 0.9 0
v -0.3 0.8 0
v -0.3 0.9 0
v -0.7 0.8 -0.1
v -0.7 0.9 -0.1
v -0.6 0.8 -0.1
v -0.6 0.9 -0.1
v -0.6 1 -0.1
v -0.5 0.7 -0.1
v -0.5 0.8 -0.1
v -0.4 0 -0.1
v -0.4 0.1 -0.1
v -0.4 0.7 -0.1
v -0.4 0.8 -0.1
v -0.4 0.9 -0.1
v -0.4 1 -0.1
v -0.2 0 -0.1
v -0.2 0.1 -0.1
v -0.1 1.4 -0.1
v -0.1 1.5 -0.1
v 0.1 1.4 -0.1
v 0.1 1.5 -0.1
v 0.2 0 -0.1
v 0.2 0.1 -0.1
v 0.4 0 -0.1
v 0.4 0.1 -0.1
v 0.4 0.9 -0.1
v 0.4 1 -0.1
v 0.6 0.8 -0.1
v 0.6 0.9 -0.1
v 0.6 1 -0.1
v 0.7 0.8 -0.1
v 0.7 0.9 -0.1
v -0.6 0.3 -0.2
v -0.6 0.8 -0.2
v -0.6 0.9 -0.2
v -0.5 0.7 -0.2
v -0.5 0.8 -0.2
v -0.4 0.1 -0.2
v -0.4 0.3 -0.2
v -0.4 0.7 -0.2
v -0.4 0.8 -0.2
v -0.4 0.9 -0.2
v -0.4 1.2 -0.2
v -0.3 0.3 -0.2
v -0.3 0.8 -0.2
v -0.3 0.9 -0.2
v -0.3 1.2 -0.2
v -0.3 1.3 -0.2
v -0.2 0.1 -0.2
v -0.2 0.2 -0.2
v -0.2 0.8 -0.2
v -0.2 0.9 -0.2
v -0.2 1.3 -0.2
v -0.2 1.4 -0.2
v -0.1 1.2 -0.2
v -0.1 1.4 -0.2
v 0 0.8 -0.2
v 0 0.9 -0.2
v 0.1 0.8 -0.2
v 0.1 0.9 -0.2
v 0.1 1.2 -0.2
v 0.1 1.4 -0.2
v 0.2 0.1 -0.2
v 0.2 0.2 -0.2
v 0.2 0.8 -0.2
v 0.2 0.9 -0.2
v 0.2 1.3 -0.2
v 0.2 1.4 -0.2
v 0.3 0.3 -0.2
v 0.3 0.8 -0.2
v 0.3 0.9 -0.2
v 0.3 1.2 -0.2
v 0.3 1.3 -0.2
v 0.4 0.1 -0.2
v 0.4 0.3 -0.2
v 0.4 0.8 -0.2
v 0.4 0.9 -0.2
v 0.4 1.2 -0.2
v 0.6 0.3 -0.2
v 0.6 0.8 -0.2
v 0.6 0.9 -0.2
v -0.3 0.3 -0.3
v -0.3 0.8 -0.3
v -0.3 0.9 -0.3
v -0.3 1.2 -0.3
v -0.2 0.8 -0.3
v -0.2 0.9 -0.3
v -0.1 0.6 -0.3
v -0.1 0.8 -0.3
v -0.1 1.2 -0.3
v -0.1 1.4 -0.3
v 0.1 0.6 -0.3
v 0.1 0.8 -0.3
v 0.1 1.2 -0.3
v 0.1 1.4 -0.3
v 0.2 0.8 -0.3
v 0.2 0.9 -0.3
v 0.3 0.3 -0.3
v 0.3 0.8 -0.3
v 0.3 0.9 -0.3
v 0.3 1.2 -0.3
v -0.1 0.6 -0.4
v -0.1 1.2 -0.4
v 0.1 0.6 -0.4
v 0.1 1.2 -0.4
v -0.4 0 0.1
v -0.2 0 0.1
v 0.2 0 0.1
v 0.4 0 0.1
v -0.4 0 -0.1
v -0.2 0 -0.1
v 0.2 0 -0.1
v 0.4 0 -0.1
v -0.4 0.1 -0.1
v -0.2 0.1 -0.1
v 0.2 0.1 -0.1
v 0.4 0.1 -0.1
v -0.4 0.1 -0.2
v -0.2 0.1 -0.2
v 0.2 0.1 -0.2
v 0.4 0.1 -0.2
v -0.3 0.2 0.1
v 0.3 0.2 0.1
v -0.3 0.2 0
v -0.2 0.2 0
v 0.2 0.2 0
v 0.3 0.2 0
v -0.2 0.2 -0.2
v 0.2 0.2 -0.2
v -0.2 0.3 0.2
v 0.2 0.3 0.2
v -0.6 0.3 0.1
v -0.4 0.3 0.1
v -0.3 0.3 0.1
v -0.2 0.3 0.1
v 0.2 0.3 0.1
v 0.3 0.3 0.1
v 0.4 0.3 0.1
v 0.6 0.3 0.1
v -0.4 0.3 0
v -0.3 0.3 0
v 0.3 0.3 0
v 0.4 0.3 0
v -0.6 0.3 -0.2
v -0.4 0.3 -0.2
v -0.3 0.3 -0.2
v 0.3 0.3 -0.2
v 0.4 0.3 -0.2
v 0.6 0.3 -0.2
v -0.3 0.3 -0.3
v 0.3 0.3 -0.3
v -0.1 0.4 0.3
v 0.1 0.4 0.3
v -0.1 0.4 0.2
v 0.1 0.4 0.2
v -0.1 0.6 -0.3
v 0.1 0.6 -0.3
v -0.1 0.6 -0.4
v 0.1 0.6 -0.4
v -0.2 0.7 0.3
v -0.1 0.7 0.3
v 0.1 0.7 0.3
v 0.2 0.7 0.3
v -0.2 0.7 0.2
v -0.1 0.7 0.2
v 0.1 0.7 0.2
v 0.2 0.7 0.2
v -0.3 0.8 0.2
v -0.2 0.8 0.2
v 0.2 0.8 0.2
v 0.3 0.8 0.2
v -0.3 0.8 0.1
v -0.2 0.8 0.1
v 0.2 0.8 0.1
v 0.3 0.8 0.1
v -0.7 0.8 0
v -0.6 0.8 0
v 0.6 0.8 0
v 0.7 0.8 0
v -0.7 0.8 -0.1
v -0.6 0.8 -0.1
v -0.5 0.8 -0.1
v -0.4 0.8 -0.1
v 0.6 0.8 -0.1
v 0.7 0.8 -0.1
v -0.5 0.8 -0.2
v -0.4 0.8 -0.2
v -0.3 0.9 0.3
v -0.2 0.9 0.3
v 0.2 0.9 0.3
v 0.3 0.9 0.3
v -0.4 0.9 0.2
v -0.3 0.9 0.2
v -0.2 0.9 0.2
v -0.1 0.9 0.2
v 0.1 0.9 0.2
v 0.2 0.9 0.2
v 0.3 0.9 0.2
v 0.4 0.9 0.2
v -0.4 0.9 0.1
v -0.3 0.9 0.1
v -0.1 0.9 0.1
v 0.1 0.9 0.1
v 0.3 0.9 0.1
v 0.4 0.9 0.1
v -0.4 0.9 0
v -0.3 0.9 0
v -0.4 0.9 -0.2
v -0.3 0.9 -0.2
v -0.2 0.9 -0.2
v 0 0.9 -0.2
v 0.1 0.9 -0.2
v 0.2 0.9 -0.2
v 0.3 0.9 -0.2
v -0.3 0.9 -0.3
v -0.2 0.9 -0.3
v 0 0.9 -0.3
v 0.1 0.9 -0.3
v 0.2 0.9 -0.3
v 0.3 0.9 -0.3
v -0.2 1.2 0.3
v -0.1 1.2 0.3
v 0.1 1.2 0.3
v 0.2 1.2 0.3
v -0.2 1.2 0.2
v -0.1 1.2 0.2
v 0.1 1.2 0.2
v 0.2 1.2 0.2
v -0.1 1.3 0.3
v 0.1 1.3 0.3
v -0.1 1.3 0.2
v 0.1 1.3 0.2
v -0.4 0.1 0.1
v -0.2 0.1 0.1
v 0.2 0.1 0.1
v 0.4 0.1 0.1
v -0.4 0.1 0
v -0.2 0.1 0
v 0.2 0.1 0
v 0.4 0.1 0
v -0.5 0.7 -0.1
v -0.4 0.7 -0.1
v -0.5 0.7 -0.2
v -0.4 0.7 -0.2
v -0.2 0.8 0.3
v -0.1 0.8 0.3
v 0.1 0.8 0.3
v 0.2 0.8 0.3
v -0.2 0.8 0.2
v -0.1 0.8 0.2
v 0.1 0.8 0.2
v 0.2 0.8 0.2
v -0.1 0.8 0.1
v 0.1 0.8 0.1
v -0.4 0.8 0
v -0.3 0.8 0
v -0.4 0.8 -0.2
v -0.3 0.8 -0.2
v -0.2 0.8 -0.2
v 0 0.8 -0.2
v 0.1 0.8 -0.2
v 0.2 0.8 -0.2
v 0.3 0.8 -0.2
v -0.3 0.8 -0.3
v -0.2 0.8 -0.3
v 0 0.8 -0.3
v 0.1 0.8 -0.3
v 0.2 0.8 -0.3
v 0.3 0.8 -0.3
v -0.1 0.9 0.3
v 0.1 0.9 0.3
v -0.1 0.9 0.2
v 0.1 0.9 0.2
v -0.6 0.9 0.1
v -0.4 0.9 0.1
v 0.4 0.9 0.1
v 0.6 0.9 0.1
v -0.7 0.9 0
v -0.6 0.9 0
v -0.4 0.9 0
v 0.4 0.9 0
v 0.6 0.9 0
v 0.7 0.9 0
v -0.7 0.9 -0.1
v -0.6 0.9 -0.1
v -0.4 0.9 -0.1
v 0.4 0.9 -0.1
v 0.6 0.9 -0.1
v 0.7 0.9 -0.1
v -0.6 0.9 -0.2
v -0.4 0.9 -0.2
v 0.4 0.9 -0.2
v 0.6 0.9 -0.2
v -0.6 1 0
v -0.4 1 0
v 0.4 1 0
v 0.6 1 0
v -0.6 1 -0.1
v -0.4 1 -0.1
v 0.4 1 -0.1
v 0.6 1 -0.1
v -0.3 1.2 0.3
v -0.2 1.2 0.3
v 0.2 1.2 0.3
v 0.3 1.2 0.3
v -0.4 1.2 0.2
v -0.3 1.2 0.2
v -0.2 1.2 0.2
v 0.2 1.2 0.2
v 0.3 1.2 0.2
v 0.4 1.2 0.2
v -0.4 1.2 -0.2
v -0.3 1.2 -0.2
v -0.1 1.2 -0.2
v 0.1 1.2 -0.2
v 0.3 1.2 -0.2
v 0.4 1.2 -0.2
v -0.3 1.2 -0.3
v -0.1 1.2 -0.3
v 0.1 1.2 -0.3
v 0.3 1.2 -0.3
v -0.1 1.2 -0.4
v 0.1 1.2 -0.4
v -0.2 1.3 0.3
v -0.1 1.3 0.3
v 0.1 1.3 0.3
v 0.2 1.3 0.3
v -0.3 1.3 0.2
v -0.2 1.3 0.2
v -0.1 1.3 0.2
v 0.1 1.3 0.2
v 0.2 1.3 0.2
v 0.3 1.3 0.2
v -0.3 1.3 -0.2
v -0.2 1.3 -0.2
v 0.2 1.3 -0.2
v 0.3 1.3 -0.2
v -0.1 1.4 0.3
v 0.1 1.4 0.3
v -0.2 1.4 0.2
v -0.1 1.4 0.2
v 0.1 1.4 0.2
v 0.2 1.4 0.2
v -0.1 1.4 -0.1
v 0.1 1.4 -0.1
v -0.2 1.4 -0.2
v -0.1 1.4 -0.2
v 0.1 1.4 -0.2
v 0.2 1.4 -0.2
v -0.1 1.4 -0.3
v 0.1 1.4 -0.3
v -0.1 1.5 0.2
v 0.1 1.5 0.2
v -0.1 1.5 -0.1
v 0.1 1.5 -0.1

# faces
f 3/4/1 2/4/1 1/4/1
f 4/4/1 2/4/1 3/4/1
f 7/5/1 6/5/1 5/5/1
f 8/5/1 6/5/1 7/5/1
f 9/5/1 6/5/1 8/5/1
f 10/5/1 6/5/1 9/5/1
f 11/4/1 8/4/1 7/4/1
f 12/4/1 8/4/1 11/4/1
f 13/4/1 10/4/1 9/4/1
f 14/4/1 10/4/1 13/4/1
f 15/4/1 13/4/1 12/4/1
f 16/4/1 13/4/1 15/4/1
f 19/3/1 18/3/1 17/3/1
f 20/3/1 18/3/1 19/3/1
f 21/3/1 18/3/1 20/3/1
f 23/3/1 22/3/1 21/3/1
f 23/3/1 21/3/1 20/3/1
f 24/3/1 22/3/1 23/3/1
f 27/4/1 26/4/1 25/4/1
f 28/4/1 26/4/1 27/4/1
f 34/3/1 30/3/1 29/3/1
f 34/3/1 31/3/1 30/3/1
f 35/3/1 33/3/1 32/3/1
f 36/3/1 34/3/1 29/3/1
f 36/3/1 35/3/1 34/3/1
f 37/3/1 33/3/1 35/3/1
f 37/3/1 35/3/1 36/3/1
f 40/3/1 39/3/1 38/3/1
f 41/3/1 39/3/1 40/3/1
f 47/4/1 43/4/1 42/4/1
f 48/4/1 43/4/1 47/4/1
f 50/3/1 45/3/1 44/3/1
f 51/3/1 45/3/1 50/3/1
f 52/3/1 47/3/1 46/3/1
f 53/3/1 47/3/1 52/3/1
f 55/3/1 50/3/1 49/3/1
f 56/3/1 50/3/1 55/3/1
f 57/3/1 54/3/1 53/3/1
f 58/3/1 54/3/1 57/3/1
f 59/3/1 57/3/1 56/3/1
f 60/3/1 57/3/1 59/3/1
f 64/4/1 62/4/1 61/4/1
f 65/4/1 64/4/1 63/4/1
f 66/4/1 62/4/1 64/4/1
f 66/4/1 64/4/1 65/4/1
f 67/4/1 62/4/1 66/4/1
f 70/3/1 69/3/1 68/3/1
f 71/3/1 69/3/1 70/3/1
f 74/3/1 73/3/1 72/3/1
f 75/3/1 73/3/1 74/3/1
f 77/3/1 76/3/1 75/3/1
f 78/3/1 76/3/1 77/3/1
f 83/4/1 80/4/1 79/4/1
f 84/4/1 80/4/1 83/4/1
f 87/2/1 82/2/1 81/2/1
f 88/4/1 86/4/1 85/4/1
f 89/4/1 86/4/1 88/4/1
f 91/2/1 82/2/1 87/2/1
f 92/2/1 82/2/1 91/2/1
f 95/3/1 94/3/1 93/3/1
f 96/3/1 94/3/1 95/3/1
f 98/2/1 91/2/1 90/2/1
f 99/2/1 91/2/1 98/2/1
f 100/2/1 97/2/1 96/2/1
f 101/2/1 97/2/1 100/2/1
f 106/4/1 103/4/1 102/4/1
f 107/4/1 103/4/1 106/4/1
f 108/3/1 105/3/1 104/3/1
f 109/3/1 105/3/1 108/3/1
f 112/3/1 111/3/1 110/3/1
f 113/3/1 111/3/1 112/3/1
f 116/3/1 115/3/1 114/3/1
f 117/3/1 115/3/1 116/3/1
f 118/3/1 115/3/1 117/3/1
f 120/3/1 119/3/1 118/3/1
f 120/3/1 118/3/1 117/3/1
f 121/3/1 119/3/1 120/3/1
f 124/3/1 123/3/1 122/3/1
f 125/3/1 124/3/1 122/3/1
f 126/3/1 124/3/1 125/3/1
f 127/5/2 128/5/2 129/5/2
f 129/5/2 128/5/2 130/5/2
f 131/4/2 132/4/2 133/4/2
f 133/4/2 132/4/2 134/4/2
f 135/3/2 136/3/2 137/3/2
f 137/3/2 136/3/2 138/3/2
f 138/3/2 136/3/2 139/3/2
f 139/3/2 140/3/2 141/3/2
f 138/3/2 139/3/2 141/3/2
f 141/3/2 140/3/2 142/3/2
f 143/3/2 144/3/2 145/3/2
f 143/3/2 145/3/2 146/3/2
f 146/3/2 145/3/2 147/3/2
f 148/4/2 149/4/2 150/4/2
f 150/4/2 149/4/2 151/4/2
f 152/3/2 153/3/2 154/3/2
f 154/3/2 153/3/2 155/3/2
f 156/2/2 157/2/2 158/2/2
f 158/2/2 157/2/2 159/2/2
f 160/4/2 161/4/2 164/4/2
f 164/4/2 161/4/2 165/4/2
f 162/2/2 163/2/2 168/2/2
f 166/4/2 167/4/2 169/4/2
f 169/4/2 167/4/2 170/4/2
f 168/2/2 163/2/2 172/2/2
f 172/2/2 163/2/2 173/2/2
f 174/3/2 175/3/2 176/3/2
f 176/3/2 175/3/2 177/3/2
f 171/2/2 172/2/2 179/2/2
f 179/2/2 172/2/2 180/2/2
f 177/2/2 178/2/2 181/2/2
f 181/2/2 178/2/2 182/2/2
f 183/4/2 184/4/2 186/4/2
f 185/4/2 186/4/2 187/4/2
f 186/4/2 184/4/2 188/4/2
f 187/4/2 186/4/2 188/4/2
f 188/4/2 184/4/2 189/4/2
f 190/3/2 191/3/2 192/3/2
f 192/3/2 191/3/2 193/3/2
f 194/3/2 195/3/2 196/3/2
f 196/3/2 195/3/2 197/3/2
f 197/3/2 198/3/2 199/3/2
f 199/3/2 198/3/2 200/3/2
f 201/3/2 202/3/2 203/3/2
f 203/3/2 202/3/2 204/3/2
f 205/4/2 206/4/2 209/4/2
f 209/4/2 206/4/2 210/4/2
f 207/3/2 208/3/2 212/3/2
f 212/3/2 208/3/2 213/3/2
f 211/3/2 212/3/2 216/3/2
f 216/3/2 212/3/2 217/3/2
f 214/3/2 215/3/2 218/3/2
f 218/3/2 215/3/2 219/3/2
f 217/3/2 218/3/2 220/3/2
f 220/3/2 218/3/2 221/3/2
f 222/3/2 223/3/2 224/3/2
f 224/3/2 223/3/2 225/3/2
f 225/3/2 223/3/2 226/3/2
f 226/3/2 227/3/2 228/3/2
f 225/3/2 226/3/2 228/3/2
f 228/3/2 227/3/2 229/3/2
f 230/3/2 231/3/2 235/3/2
f 231/3/2 232/3/2 235/3/2
f 233/3/2 234/3/2 236/3/2
f 230/3/2 235/3/2 237/3/2
f 235/3/2 236/3/2 237/3/2
f 236/3/2 234/3/2 238/3/2
f 237/3/2 236/3/2 238/3/2
f 239/5/2 240/5/2 241/5/2
f 241/5/2 240/5/2 242/5/2
f 242/5/2 240/5/2 243/5/2
f 243/5/2 240/5/2 244/5/2
f 241/4/2 242/4/2 245/4/2
f 245/4/2 242/4/2 246/4/2
f 243/4/2 244/4/2 247/4/2
f 247/4/2 244/4/2 248/4/2
f 246/4/2 247/4/2 249/4/2
f 249/4/2 247/4/2 250/4/2
f 251/4/2 252/4/2 253/4/2
f 253/4/2 252/4/2 254/4/2
f 259/3/3 256/3/3 255/3/3
f 260/3/3 256/3/3 259/3/3
f 263/4/3 258/4/3 257/4/3
f 264/4/3 258/4/3 263/4/3
f 266/3/3 261/3/3 260/3/3
f 267/3/3 261/3/3 266/3/3
f 269/4/3 265/4/3 264/4/3
f 269/4/3 263/4/3 262/4/3
f 269/4/3 264/4/3 263/4/3
f 270/4/3 265/4/3 269/4/3
f 271/4/3 265/4/3 270/4/3
f 272/4/3 265/4/3 271/4/3
f 274/3/3 268/3/3 267/3/3
f 275/3/3 268/3/3 274/3/3
f 276/4/3 271/4/3 270/4/3
f 277/4/3 271/4/3 276/4/3
f 279/3/3 274/3/3 273/3/3
f 280/3/3 274/3/3 279/3/3
f 281/3/3 279/3/3 278/3/3
f 282/3/3 279/3/3 281/3/3
f 286/3/3 284/3/3 283/3/3
f 287/3/3 284/3/3 286/3/3
f 291/3/3 286/3/3 285/3/3
f 292/3/3 286/3/3 291/3/3
f 294/3/3 288/3/3 287/3/3
f 295/3/3 288/3/3 294/3/3
f 297/4/3 290/4/3 289/4/3
f 298/4/3 290/4/3 297/4/3
f 299/4/3 292/4/3 291/4/3
f 300/1/3 293/1/3 292/1/3
f 300/4/3 292/4/3 299/4/3
f 301/1/3 293/1/3 300/1/3
f 302/4/3 294/4/3 293/4/3
f 302/1/3 293/1/3 301/1/3
f 303/4/3 294/4/3 302/4/3
f 304/3/3 296/3/3 295/3/3
f 305/3/3 296/3/3 304/3/3
f 307/4/3 297/4/3 289/4/3
f 310/4/3 301/4/3 300/4/3
f 311/1/3 303/1/3 302/1/3
f 311/1/3 304/1/3 303/1/3
f 311/4/3 301/4/3 310/4/3
f 311/1/3 302/1/3 301/1/3
f 312/1/3 304/1/3 311/1/3
f 313/1/3 304/1/3 312/1/3
f 314/1/3 304/1/3 313/1/3
f 315/2/3 306/2/3 305/2/3
f 316/2/3 306/2/3 315/2/3
f 317/4/3 308/4/3 307/4/3
f 317/4/3 307/4/3 289/4/3
f 318/4/3 308/4/3 317/4/3
f 319/4/3 310/4/3 309/4/3
f 320/1/3 311/1/3 310/1/3
f 320/4/3 310/4/3 319/4/3
f 320/1/3 312/1/3 311/1/3
f 321/4/3 313/4/3 312/4/3
f 321/1/3 312/1/3 320/1/3
f 322/4/3 313/4/3 321/4/3
f 323/3/3 315/3/3 314/3/3
f 324/3/3 315/3/3 323/3/3
f 325/3/3 320/3/3 319/3/3
f 326/3/3 320/3/3 325/3/3
f 327/3/3 323/3/3 322/3/3
f 328/3/3 323/3/3 327/3/3
f 329/3/3 327/3/3 326/3/3
f 330/3/3 327/3/3 329/3/3
f 336/5/3 332/5/3 331/5/3
f 337/4/3 333/4/3 332/4/3
f 337/5/3 332/5/3 336/5/3
f 338/4/3 333/4/3 337/4/3
f 340/4/3 337/4/3 336/4/3
f 340/4/3 338/4/3 337/4/3
f 341/4/3 338/4/3 340/4/3
f 342/4/3 338/4/3 341/4/3
f 343/3/3 335/3/3 334/3/3
f 344/3/3 335/3/3 343/3/3
f 345/3/3 340/3/3 339/3/3
f 345/4/3 341/4/3 340/4/3
f 346/4/3 341/4/3 345/4/3
f 349/1/3 348/1/3 347/1/3
f 350/1/3 348/1/3 349/1/3
f 353/3/3 345/3/3 339/3/3
f 355/3/3 353/3/3 339/3/3
f 356/4/3 354/4/3 353/4/3
f 356/3/3 353/3/3 355/3/3
f 357/4/3 354/4/3 356/4/3
f 359/3/3 352/3/3 351/3/3
f 360/3/3 352/3/3 359/3/3
f 361/4/3 358/4/3 357/4/3
f 361/4/3 357/4/3 356/4/3
f 362/4/3 358/4/3 361/4/3
f 363/4/3 358/4/3 362/4/3
f 364/5/3 362/5/3 361/5/3
f 365/4/3 363/4/3 362/4/3
f 365/5/3 362/5/3 364/5/3
f 366/4/3 363/4/3 365/4/3
f 369/4/3 368/4/3 367/4/3
f 370/4/3 368/4/3 369/4/3
f 374/4/3 371/4/3 370/4/3
f 375/4/3 371/4/3 374/4/3
f 376/3/3 373/3/3 372/3/3
f 377/3/3 373/3/3 376/3/3
f 378/3/3 376/3/3 372/3/3
f 379/3/3 376/3/3 378/3/3
f 382/3/3 381/3/3 380/3/3
f 384/3/3 382/3/3 380/3/3
f 384/3/3 383/3/3 382/3/3
f 385/3/3 383/3/3 384/3/3
f 389/4/3 387/4/3 386/4/3
f 390/4/3 387/4/3 389/4/3
f 391/4/3 389/4/3 388/4/3
f 392/4/3 389/4/3 391/4/3
f 395/2/3 394/2/3 393/2/3
f 396/2/3 394/2/3 395/2/3
f 397/4/4 398/4/4 399/4/4
f 399/4/4 398/4/4 400/4/4
f 401/4/4 402/4/4 403/4/4
f 403/4/4 402/4/4 404/4/4
f 405/4/4 406/4/4 407/4/4
f 407/4/4 406/4/4 408/4/4
f 410/5/4 411/5/4 414/5/4
f 414/5/4 411/5/4 415/5/4
f 408/4/4 409/4/4 416/4/4
f 416/4/4 409/4/4 417/4/4
f 412/3/4 413/3/4 418/3/4
f 418/3/4 413/3/4 419/3/4
f 420/2/4 421/2/4 422/2/4
f 422/2/4 421/2/4 423/2/4
f 424/3/4 425/3/4 426/3/4
f 426/3/4 425/3/4 427/3/4
f 428/4/4 429/4/4 431/4/4
f 431/4/4 429/4/4 432/4/4
f 430/4/4 431/4/4 433/4/4
f 433/4/4 431/4/4 434/4/4
f 435/5/4 436/5/4 438/5/4
f 436/4/4 437/4/4 439/4/4
f 438/5/4 436/5/4 439/5/4
f 435/5/4 438/5/4 441/5/4
f 441/5/4 438/5/4 442/5/4
f 439/4/4 437/4/4 443/4/4
f 443/4/4 437/4/4 444/4/4
f 441/4/4 442/4/4 446/4/4
f 440/3/4 441/3/4 446/3/4
f 442/4/4 443/4/4 446/4/4
f 446/4/4 443/4/4 447/4/4
f 444/3/4 445/3/4 448/3/4
f 448/3/4 445/3/4 449/3/4
f 440/3/4 446/3/4 451/3/4
f 451/3/4 446/3/4 452/3/4
f 447/3/4 448/3/4 453/3/4
f 453/3/4 448/3/4 454/3/4
f 449/3/4 450/3/4 455/3/4
f 455/3/4 456/3/4 457/3/4
f 449/3/4 455/3/4 457/3/4
f 457/3/4 456/3/4 458/3/4
f 459/3/4 460/3/4 461/3/4
f 461/3/4 460/3/4 462/3/4
f 452/3/4 446/3/4 466/3/4
f 463/3/4 464/3/4 469/3/4
f 469/3/4 464/3/4 470/3/4
f 466/3/4 446/3/4 471/3/4
f 465/3/4 466/3/4 471/3/4
f 467/3/4 468/3/4 472/3/4
f 472/3/4 468/3/4 473/3/4
f 463/3/4 469/3/4 474/3/4
f 474/3/4 469/3/4 475/3/4
f 465/3/4 471/3/4 476/3/4
f 472/4/4 473/4/4 477/4/4
f 476/3/4 471/3/4 477/3/4
f 471/4/4 472/4/4 477/4/4
f 477/4/4 473/4/4 478/4/4
f 473/3/4 474/3/4 479/3/4
f 478/4/4 473/4/4 479/4/4
f 479/3/4 474/3/4 480/3/4
f 477/5/4 478/5/4 481/5/4
f 478/4/4 479/4/4 482/4/4
f 481/5/4 478/5/4 482/5/4
f 482/4/4 479/4/4 483/4/4
f 484/4/4 485/4/4 488/4/4
f 486/3/4 487/3/4 489/3/4
f 484/4/4 488/4/4 490/4/4
f 488/3/4 489/3/4 491/3/4
f 490/4/4 488/4/4 491/4/4
f 489/3/4 487/3/4 492/3/4
f 491/3/4 489/3/4 492/3/4
f 484/4/4 490/4/4 494/4/4
f 492/2/4 493/2/4 496/2/4
f 496/2/4 493/2/4 497/2/4
f 494/4/4 495/4/4 498/4/4
f 495/3/4 496/3/4 498/3/4
f 498/3/4 496/3/4 499/3/4
f 484/4/4 494/4/4 500/4/4
f 494/4/4 498/4/4 500/4/4
f 500/4/4 498/4/4 501/4/4
f 499/3/4 496/3/4 502/3/4
f 502/3/4 496/3/4 503/3/4
f 504/2/4 505/2/4 506/2/4
f 506/2/4 505/2/4 507/2/4
f 512/3/5 509/3/5 508/3/5
f 513/3/5 509/3/5 512/3/5
f 514/3/5 511/3/5 510/3/5
f 515/3/5 511/3/5 514/3/5
f 520/3/5 517/3/5 516/3/5
f 521/3/5 517/3/5 520/3/5
f 522/3/5 519/3/5 518/3/5
f 523/3/5 519/3/5 522/3/5
f 526/3/5 525/3/5 524/3/5
f 527/3/5 525/3/5 526/3/5
f 528/3/5 525/3/5 527/3/5
f 529/3/5 525/3/5 528/3/5
f 530/3/5 528/3/5 527/3/5
f 531/3/5 528/3/5 530/3/5
f 537/4/5 533/4/5 532/4/5
f 538/4/5 533/4/5 537/4/5
f 542/4/5 536/4/5 535/4/5
f 542/5/5 535/5/5 534/5/5
f 543/4/5 536/4/5 542/4/5
f 544/4/5 540/4/5 539/4/5
f 545/5/5 541/5/5 540/5/5
f 545/4/5 540/4/5 544/4/5
f 546/5/5 542/5/5 534/5/5
f 547/5/5 542/5/5 546/5/5
f 550/5/5 541/5/5 545/5/5
f 551/5/5 541/5/5 550/5/5
f 552/4/5 549/4/5 548/4/5
f 553/4/5 549/4/5 552/4/5
f 556/4/5 555/4/5 554/4/5
f 557/4/5 555/4/5 556/4/5
f 560/2/5 559/2/5 558/2/5
f 561/2/5 559/2/5 560/2/5
f 566/4/5 563/4/5 562/4/5
f 567/4/5 563/4/5 566/4/5
f 568/4/5 565/4/5 564/4/5
f 569/4/5 565/4/5 568/4/5
f 574/3/5 571/3/5 570/3/5
f 575/3/5 571/3/5 574/3/5
f 576/3/5 573/3/5 572/3/5
f 577/3/5 573/3/5 576/3/5
f 582/4/5 579/4/5 578/4/5
f 583/4/5 579/4/5 582/4/5
f 586/4/5 581/4/5 580/4/5
f 587/4/5 581/4/5 586/4/5
f 588/4/5 585/4/5 584/4/5
f 589/4/5 585/4/5 588/4/5
f 595/3/5 591/3/5 590/3/5
f 596/3/5 591/3/5 595/3/5
f 599/3/5 593/3/5 592/3/5
f 600/3/5 593/3/5 599/3/5
f 602/3/5 595/3/5 594/3/5
f 603/3/5 595/3/5 602/3/5
f 604/4/5 598/4/5 597/4/5
f 605/4/5 598/4/5 604/4/5
f 606/3/5 601/3/5 600/3/5
f 607/3/5 601/3/5 606/3/5
f 610/3/5 609/3/5 608/3/5
f 611/3/5 609/3/5 610/3/5
f 617/3/5 612/3/5 611/3/5
f 618/3/5 612/3/5 617/3/5
f 619/2/5 614/2/5 613/2/5
f 620/2/5 614/2/5 619/2/5
f 621/3/5 616/3/5 615/3/5
f 622/3/5 616/3/5 621/3/5
f 627/3/5 624/3/5 623/3/5
f 628/3/5 624/3/5 627/3/5
f 629/3/5 626/3/5 625/3/5
f 630/3/5 626/3/5 629/3/5
f 633/3/5 632/3/5 631/3/5
f 634/3/5 632/3/5 633/3/5
f 635/3/6 636/3/6 639/3/6
f 639/3/6 636/3/6 640/3/6
f 637/3/6 638/3/6 641/3/6
f 641/3/6 638/3/6 642/3/6
f 643/5/6 644/5/6 645/5/6
f 645/5/6 644/5/6 646/5/6
f 647/4/6 648/4/6 651/4/6
f 651/4/6 648/4/6 652/4/6
f 649/4/6 650/4/6 653/4/6
f 653/4/6 650/4/6 654/4/6
f 652/4/6 653/4/6 655/4/6
f 655/4/6 653/4/6 656/4/6
f 657/4/6 658/4/6 659/4/6
f 659/4/6 658/4/6 660/4/6
f 660/4/6 661/4/6 666/4/6
f 666/4/6 661/4/6 667/4/6
f 662/2/6 663/2/6 668/2/6
f 668/2/6 663/2/6 669/2/6
f 664/4/6 665/4/6 670/4/6
f 670/4/6 665/4/6 671/4/6
f 672/4/6 673/4/6 674/4/6
f 674/4/6 673/4/6 675/4/6
f 676/4/6 677/4/6 681/4/6
f 681/4/6 677/4/6 682/4/6
f 678/4/6 679/4/6 683/4/6
f 683/4/6 679/4/6 684/4/6
f 680/4/6 681/4/6 686/4/6
f 686/4/6 681/4/6 687/4/6
f 684/4/6 685/4/6 690/4/6
f 690/4/6 685/4/6 691/4/6
f 687/4/6 688/4/6 692/4/6
f 692/4/6 688/4/6 693/4/6
f 689/4/6 690/4/6 694/4/6
f 694/4/6 690/4/6 695/4/6
f 696/4/6 697/4/6 700/4/6
f 700/4/6 697/4/6 701/4/6
f 698/4/6 699/4/6 702/4/6
f 702/4/6 699/4/6 703/4/6
f 704/3/6 705/3/6 709/3/6
f 709/3/6 705/3/6 710/3/6
f 706/3/6 707/3/6 711/3/6
f 711/3/6 707/3/6 712/3/6
f 708/3/6 709/3/6 714/3/6
f 714/3/6 709/3/6 715/3/6
f 712/3/6 713/3/6 718/3/6
f 718/3/6 713/3/6 719/3/6
f 715/3/6 716/3/6 720/3/6
f 720/3/6 716/3/6 721/3/6
f 717/3/6 718/3/6 722/3/6
f 722/3/6 718/3/6 723/3/6
f 721/2/6 722/2/6 724/2/6
f 724/2/6 722/2/6 725/2/6
f 726/3/6 727/3/6 731/3/6
f 731/3/6 727/3/6 732/3/6
f 728/3/6 729/3/6 733/3/6
f 733/3/6 729/3/6 734/3/6
f 730/3/6 731/3/6 736/3/6
f 736/3/6 731/3/6 737/3/6
f 734/3/6 735/3/6 738/3/6
f 738/3/6 735/3/6 739/3/6
f 740/3/6 741/3/6 743/3/6
f 743/3/6 741/3/6 744/3/6
f 742/3/6 743/3/6 746/3/6
f 744/3/6 745/3/6 747/3/6
f 742/3/6 746/3/6 748/3/6
f 746/2/6 747/2/6 749/2/6
f 748/3/6 746/3/6 749/3/6
f 747/3/6 745/3/6 750/3/6
f 749/2/6 747/2/6 750/2/6
f 750/3/6 745/3/6 751/3/6
f 749/2/6 750/2/6 752/2/6
f 752/2/6 750/2/6 753/2/6
f 754/2/6 755/2/6 756/2/6
f 756/2/6 755/2/6 757/2/6
